<mxfile host="app.diagrams.net" modified="2021-05-10T16:58:44.549Z" agent="5.0 (Windows)" etag="V8lpJ-4y9m0aY2A_g3bk" version="14.6.11" type="github">
  <diagram id="R2lEEEUBdFMjLlhIrx00" name="Page-1">
    <mxGraphModel dx="684" dy="1363" grid="1" gridSize="10" guides="1" tooltips="1" connect="1" arrows="1" fold="1" page="1" pageScale="1" pageWidth="850" pageHeight="1100" math="0" shadow="0" extFonts="Permanent Marker^https://fonts.googleapis.com/css?family=Permanent+Marker">
      <root>
        <mxCell id="0" />
        <mxCell id="1" parent="0" />
        <mxCell id="C-vyLk0tnHw3VtMMgP7b-2" value="Pedido" style="shape=table;startSize=30;container=1;collapsible=1;childLayout=tableLayout;fixedRows=1;rowLines=0;fontStyle=1;align=center;resizeLast=1;" parent="1" vertex="1">
          <mxGeometry x="790" y="-280" width="275" height="310" as="geometry">
            <mxRectangle x="870" y="-100" width="70" height="30" as="alternateBounds" />
          </mxGeometry>
        </mxCell>
        <mxCell id="C-vyLk0tnHw3VtMMgP7b-3" value="" style="shape=partialRectangle;collapsible=0;dropTarget=0;pointerEvents=0;fillColor=none;points=[[0,0.5],[1,0.5]];portConstraint=eastwest;top=0;left=0;right=0;bottom=1;" parent="C-vyLk0tnHw3VtMMgP7b-2" vertex="1">
          <mxGeometry y="30" width="275" height="30" as="geometry" />
        </mxCell>
        <mxCell id="C-vyLk0tnHw3VtMMgP7b-4" value="PK" style="shape=partialRectangle;overflow=hidden;connectable=0;fillColor=none;top=0;left=0;bottom=0;right=0;fontStyle=1;" parent="C-vyLk0tnHw3VtMMgP7b-3" vertex="1">
          <mxGeometry width="30" height="30" as="geometry" />
        </mxCell>
        <mxCell id="C-vyLk0tnHw3VtMMgP7b-5" value="fecha int NOT NULL, id_pedido int NO Null" style="shape=partialRectangle;overflow=hidden;connectable=0;fillColor=none;top=0;left=0;bottom=0;right=0;align=left;spacingLeft=6;fontStyle=5;" parent="C-vyLk0tnHw3VtMMgP7b-3" vertex="1">
          <mxGeometry x="30" width="245" height="30" as="geometry" />
        </mxCell>
        <mxCell id="C-vyLk0tnHw3VtMMgP7b-6" value="" style="shape=partialRectangle;collapsible=0;dropTarget=0;pointerEvents=0;fillColor=none;points=[[0,0.5],[1,0.5]];portConstraint=eastwest;top=0;left=0;right=0;bottom=0;" parent="C-vyLk0tnHw3VtMMgP7b-2" vertex="1">
          <mxGeometry y="60" width="275" height="30" as="geometry" />
        </mxCell>
        <mxCell id="C-vyLk0tnHw3VtMMgP7b-7" value="FK1" style="shape=partialRectangle;overflow=hidden;connectable=0;fillColor=none;top=0;left=0;bottom=0;right=0;" parent="C-vyLk0tnHw3VtMMgP7b-6" vertex="1">
          <mxGeometry width="30" height="30" as="geometry" />
        </mxCell>
        <mxCell id="C-vyLk0tnHw3VtMMgP7b-8" value="id_factura int NOT NULL" style="shape=partialRectangle;overflow=hidden;connectable=0;fillColor=none;top=0;left=0;bottom=0;right=0;align=left;spacingLeft=6;" parent="C-vyLk0tnHw3VtMMgP7b-6" vertex="1">
          <mxGeometry x="30" width="245" height="30" as="geometry" />
        </mxCell>
        <mxCell id="C3HohyDAmdTFKAN3VmWp-432" value="" style="shape=partialRectangle;collapsible=0;dropTarget=0;pointerEvents=0;fillColor=none;points=[[0,0.5],[1,0.5]];portConstraint=eastwest;top=0;left=0;right=0;bottom=0;" vertex="1" parent="C-vyLk0tnHw3VtMMgP7b-2">
          <mxGeometry y="90" width="275" height="30" as="geometry" />
        </mxCell>
        <mxCell id="C3HohyDAmdTFKAN3VmWp-433" value="FK3" style="shape=partialRectangle;overflow=hidden;connectable=0;fillColor=none;top=0;left=0;bottom=0;right=0;" vertex="1" parent="C3HohyDAmdTFKAN3VmWp-432">
          <mxGeometry width="30" height="30" as="geometry" />
        </mxCell>
        <mxCell id="C3HohyDAmdTFKAN3VmWp-434" value="id_cliente int NOT NULL" style="shape=partialRectangle;overflow=hidden;connectable=0;fillColor=none;top=0;left=0;bottom=0;right=0;align=left;spacingLeft=6;" vertex="1" parent="C3HohyDAmdTFKAN3VmWp-432">
          <mxGeometry x="30" width="245" height="30" as="geometry" />
        </mxCell>
        <mxCell id="C3HohyDAmdTFKAN3VmWp-56" value="" style="shape=partialRectangle;collapsible=0;dropTarget=0;pointerEvents=0;fillColor=none;points=[[0,0.5],[1,0.5]];portConstraint=eastwest;top=0;left=0;right=0;bottom=0;" vertex="1" parent="C-vyLk0tnHw3VtMMgP7b-2">
          <mxGeometry y="120" width="275" height="30" as="geometry" />
        </mxCell>
        <mxCell id="C3HohyDAmdTFKAN3VmWp-57" value="FK2" style="shape=partialRectangle;overflow=hidden;connectable=0;fillColor=none;top=0;left=0;bottom=0;right=0;" vertex="1" parent="C3HohyDAmdTFKAN3VmWp-56">
          <mxGeometry width="30" height="30" as="geometry" />
        </mxCell>
        <mxCell id="C3HohyDAmdTFKAN3VmWp-58" value="id_mpago long NOT NULL" style="shape=partialRectangle;overflow=hidden;connectable=0;fillColor=none;top=0;left=0;bottom=0;right=0;align=left;spacingLeft=6;" vertex="1" parent="C3HohyDAmdTFKAN3VmWp-56">
          <mxGeometry x="30" width="245" height="30" as="geometry" />
        </mxCell>
        <mxCell id="C3HohyDAmdTFKAN3VmWp-79" value="" style="shape=partialRectangle;collapsible=0;dropTarget=0;pointerEvents=0;fillColor=none;top=0;left=0;bottom=0;right=0;points=[[0,0.5],[1,0.5]];portConstraint=eastwest;" vertex="1" parent="C-vyLk0tnHw3VtMMgP7b-2">
          <mxGeometry y="150" width="275" height="30" as="geometry" />
        </mxCell>
        <mxCell id="C3HohyDAmdTFKAN3VmWp-80" value="" style="shape=partialRectangle;connectable=0;fillColor=none;top=0;left=0;bottom=0;right=0;editable=1;overflow=hidden;" vertex="1" parent="C3HohyDAmdTFKAN3VmWp-79">
          <mxGeometry width="30" height="30" as="geometry" />
        </mxCell>
        <mxCell id="C3HohyDAmdTFKAN3VmWp-81" value="estado int NOT NULL" style="shape=partialRectangle;connectable=0;fillColor=none;top=0;left=0;bottom=0;right=0;align=left;spacingLeft=6;overflow=hidden;" vertex="1" parent="C3HohyDAmdTFKAN3VmWp-79">
          <mxGeometry x="30" width="245" height="30" as="geometry" />
        </mxCell>
        <mxCell id="C3HohyDAmdTFKAN3VmWp-82" value="" style="shape=partialRectangle;collapsible=0;dropTarget=0;pointerEvents=0;fillColor=none;top=0;left=0;bottom=0;right=0;points=[[0,0.5],[1,0.5]];portConstraint=eastwest;" vertex="1" parent="C-vyLk0tnHw3VtMMgP7b-2">
          <mxGeometry y="180" width="275" height="30" as="geometry" />
        </mxCell>
        <mxCell id="C3HohyDAmdTFKAN3VmWp-83" value="" style="shape=partialRectangle;connectable=0;fillColor=none;top=0;left=0;bottom=0;right=0;editable=1;overflow=hidden;" vertex="1" parent="C3HohyDAmdTFKAN3VmWp-82">
          <mxGeometry width="30" height="30" as="geometry" />
        </mxCell>
        <mxCell id="C3HohyDAmdTFKAN3VmWp-84" value="estado int NOTNULL" style="shape=partialRectangle;connectable=0;fillColor=none;top=0;left=0;bottom=0;right=0;align=left;spacingLeft=6;overflow=hidden;" vertex="1" parent="C3HohyDAmdTFKAN3VmWp-82">
          <mxGeometry x="30" width="245" height="30" as="geometry" />
        </mxCell>
        <mxCell id="C3HohyDAmdTFKAN3VmWp-108" value="" style="shape=partialRectangle;collapsible=0;dropTarget=0;pointerEvents=0;fillColor=none;top=0;left=0;bottom=0;right=0;points=[[0,0.5],[1,0.5]];portConstraint=eastwest;" vertex="1" parent="C-vyLk0tnHw3VtMMgP7b-2">
          <mxGeometry y="210" width="275" height="30" as="geometry" />
        </mxCell>
        <mxCell id="C3HohyDAmdTFKAN3VmWp-109" value="" style="shape=partialRectangle;connectable=0;fillColor=none;top=0;left=0;bottom=0;right=0;editable=1;overflow=hidden;" vertex="1" parent="C3HohyDAmdTFKAN3VmWp-108">
          <mxGeometry width="30" height="30" as="geometry" />
        </mxCell>
        <mxCell id="C3HohyDAmdTFKAN3VmWp-110" value="hora_estimada_fin datetime" style="shape=partialRectangle;connectable=0;fillColor=none;top=0;left=0;bottom=0;right=0;align=left;spacingLeft=6;overflow=hidden;" vertex="1" parent="C3HohyDAmdTFKAN3VmWp-108">
          <mxGeometry x="30" width="245" height="30" as="geometry" />
        </mxCell>
        <mxCell id="C3HohyDAmdTFKAN3VmWp-111" value="" style="shape=partialRectangle;collapsible=0;dropTarget=0;pointerEvents=0;fillColor=none;top=0;left=0;bottom=0;right=0;points=[[0,0.5],[1,0.5]];portConstraint=eastwest;" vertex="1" parent="C-vyLk0tnHw3VtMMgP7b-2">
          <mxGeometry y="240" width="275" height="30" as="geometry" />
        </mxCell>
        <mxCell id="C3HohyDAmdTFKAN3VmWp-112" value="" style="shape=partialRectangle;connectable=0;fillColor=none;top=0;left=0;bottom=0;right=0;editable=1;overflow=hidden;" vertex="1" parent="C3HohyDAmdTFKAN3VmWp-111">
          <mxGeometry width="30" height="30" as="geometry" />
        </mxCell>
        <mxCell id="C3HohyDAmdTFKAN3VmWp-113" value="tipo_envio int NOT NULL" style="shape=partialRectangle;connectable=0;fillColor=none;top=0;left=0;bottom=0;right=0;align=left;spacingLeft=6;overflow=hidden;" vertex="1" parent="C3HohyDAmdTFKAN3VmWp-111">
          <mxGeometry x="30" width="245" height="30" as="geometry" />
        </mxCell>
        <mxCell id="C3HohyDAmdTFKAN3VmWp-114" value="" style="shape=partialRectangle;collapsible=0;dropTarget=0;pointerEvents=0;fillColor=none;top=0;left=0;bottom=0;right=0;points=[[0,0.5],[1,0.5]];portConstraint=eastwest;" vertex="1" parent="C-vyLk0tnHw3VtMMgP7b-2">
          <mxGeometry y="270" width="275" height="30" as="geometry" />
        </mxCell>
        <mxCell id="C3HohyDAmdTFKAN3VmWp-115" value="" style="shape=partialRectangle;connectable=0;fillColor=none;top=0;left=0;bottom=0;right=0;editable=1;overflow=hidden;" vertex="1" parent="C3HohyDAmdTFKAN3VmWp-114">
          <mxGeometry width="30" height="30" as="geometry" />
        </mxCell>
        <mxCell id="C3HohyDAmdTFKAN3VmWp-116" value="total double NOT NULL" style="shape=partialRectangle;connectable=0;fillColor=none;top=0;left=0;bottom=0;right=0;align=left;spacingLeft=6;overflow=hidden;" vertex="1" parent="C3HohyDAmdTFKAN3VmWp-114">
          <mxGeometry x="30" width="245" height="30" as="geometry" />
        </mxCell>
        <mxCell id="C-vyLk0tnHw3VtMMgP7b-23" value="Factura" style="shape=table;startSize=30;container=1;collapsible=1;childLayout=tableLayout;fixedRows=1;rowLines=0;fontStyle=1;align=center;resizeLast=1;" parent="1" vertex="1">
          <mxGeometry x="150" y="-60" width="220" height="250" as="geometry" />
        </mxCell>
        <mxCell id="C-vyLk0tnHw3VtMMgP7b-24" value="" style="shape=partialRectangle;collapsible=0;dropTarget=0;pointerEvents=0;fillColor=none;points=[[0,0.5],[1,0.5]];portConstraint=eastwest;top=0;left=0;right=0;bottom=1;" parent="C-vyLk0tnHw3VtMMgP7b-23" vertex="1">
          <mxGeometry y="30" width="220" height="30" as="geometry" />
        </mxCell>
        <mxCell id="C-vyLk0tnHw3VtMMgP7b-25" value="PK" style="shape=partialRectangle;overflow=hidden;connectable=0;fillColor=none;top=0;left=0;bottom=0;right=0;fontStyle=1;" parent="C-vyLk0tnHw3VtMMgP7b-24" vertex="1">
          <mxGeometry width="30" height="30" as="geometry" />
        </mxCell>
        <mxCell id="C-vyLk0tnHw3VtMMgP7b-26" value="id_factura int NOT NULL " style="shape=partialRectangle;overflow=hidden;connectable=0;fillColor=none;top=0;left=0;bottom=0;right=0;align=left;spacingLeft=6;fontStyle=5;" parent="C-vyLk0tnHw3VtMMgP7b-24" vertex="1">
          <mxGeometry x="30" width="190" height="30" as="geometry" />
        </mxCell>
        <mxCell id="C-vyLk0tnHw3VtMMgP7b-27" value="" style="shape=partialRectangle;collapsible=0;dropTarget=0;pointerEvents=0;fillColor=none;points=[[0,0.5],[1,0.5]];portConstraint=eastwest;top=0;left=0;right=0;bottom=0;" parent="C-vyLk0tnHw3VtMMgP7b-23" vertex="1">
          <mxGeometry y="60" width="220" height="30" as="geometry" />
        </mxCell>
        <mxCell id="C-vyLk0tnHw3VtMMgP7b-28" value="" style="shape=partialRectangle;overflow=hidden;connectable=0;fillColor=none;top=0;left=0;bottom=0;right=0;" parent="C-vyLk0tnHw3VtMMgP7b-27" vertex="1">
          <mxGeometry width="30" height="30" as="geometry" />
        </mxCell>
        <mxCell id="C-vyLk0tnHw3VtMMgP7b-29" value="fecha date NOT NULL" style="shape=partialRectangle;overflow=hidden;connectable=0;fillColor=none;top=0;left=0;bottom=0;right=0;align=left;spacingLeft=6;" parent="C-vyLk0tnHw3VtMMgP7b-27" vertex="1">
          <mxGeometry x="30" width="190" height="30" as="geometry" />
        </mxCell>
        <mxCell id="C3HohyDAmdTFKAN3VmWp-5" value="" style="shape=partialRectangle;collapsible=0;dropTarget=0;pointerEvents=0;fillColor=none;points=[[0,0.5],[1,0.5]];portConstraint=eastwest;top=0;left=0;right=0;bottom=0;" vertex="1" parent="C-vyLk0tnHw3VtMMgP7b-23">
          <mxGeometry y="90" width="220" height="30" as="geometry" />
        </mxCell>
        <mxCell id="C3HohyDAmdTFKAN3VmWp-6" value="" style="shape=partialRectangle;overflow=hidden;connectable=0;fillColor=none;top=0;left=0;bottom=0;right=0;" vertex="1" parent="C3HohyDAmdTFKAN3VmWp-5">
          <mxGeometry width="30" height="30" as="geometry" />
        </mxCell>
        <mxCell id="C3HohyDAmdTFKAN3VmWp-7" value="monto_descuento double NOT NULL" style="shape=partialRectangle;overflow=hidden;connectable=0;fillColor=none;top=0;left=0;bottom=0;right=0;align=left;spacingLeft=6;" vertex="1" parent="C3HohyDAmdTFKAN3VmWp-5">
          <mxGeometry x="30" width="190" height="30" as="geometry" />
        </mxCell>
        <mxCell id="C3HohyDAmdTFKAN3VmWp-8" value="" style="shape=partialRectangle;collapsible=0;dropTarget=0;pointerEvents=0;fillColor=none;points=[[0,0.5],[1,0.5]];portConstraint=eastwest;top=0;left=0;right=0;bottom=0;" vertex="1" parent="C-vyLk0tnHw3VtMMgP7b-23">
          <mxGeometry y="120" width="220" height="30" as="geometry" />
        </mxCell>
        <mxCell id="C3HohyDAmdTFKAN3VmWp-9" value="" style="shape=partialRectangle;overflow=hidden;connectable=0;fillColor=none;top=0;left=0;bottom=0;right=0;" vertex="1" parent="C3HohyDAmdTFKAN3VmWp-8">
          <mxGeometry width="30" height="30" as="geometry" />
        </mxCell>
        <mxCell id="C3HohyDAmdTFKAN3VmWp-10" value="forma_pago string NOT NULL" style="shape=partialRectangle;overflow=hidden;connectable=0;fillColor=none;top=0;left=0;bottom=0;right=0;align=left;spacingLeft=6;" vertex="1" parent="C3HohyDAmdTFKAN3VmWp-8">
          <mxGeometry x="30" width="190" height="30" as="geometry" />
        </mxCell>
        <mxCell id="C3HohyDAmdTFKAN3VmWp-11" value="" style="shape=partialRectangle;collapsible=0;dropTarget=0;pointerEvents=0;fillColor=none;points=[[0,0.5],[1,0.5]];portConstraint=eastwest;top=0;left=0;right=0;bottom=0;" vertex="1" parent="C-vyLk0tnHw3VtMMgP7b-23">
          <mxGeometry y="150" width="220" height="30" as="geometry" />
        </mxCell>
        <mxCell id="C3HohyDAmdTFKAN3VmWp-12" value="" style="shape=partialRectangle;overflow=hidden;connectable=0;fillColor=none;top=0;left=0;bottom=0;right=0;" vertex="1" parent="C3HohyDAmdTFKAN3VmWp-11">
          <mxGeometry width="30" height="30" as="geometry" />
        </mxCell>
        <mxCell id="C3HohyDAmdTFKAN3VmWp-13" value="nro_tarjeta string NOT NULL" style="shape=partialRectangle;overflow=hidden;connectable=0;fillColor=none;top=0;left=0;bottom=0;right=0;align=left;spacingLeft=6;" vertex="1" parent="C3HohyDAmdTFKAN3VmWp-11">
          <mxGeometry x="30" width="190" height="30" as="geometry" />
        </mxCell>
        <mxCell id="C3HohyDAmdTFKAN3VmWp-30" value="" style="shape=partialRectangle;collapsible=0;dropTarget=0;pointerEvents=0;fillColor=none;points=[[0,0.5],[1,0.5]];portConstraint=eastwest;top=0;left=0;right=0;bottom=0;" vertex="1" parent="C-vyLk0tnHw3VtMMgP7b-23">
          <mxGeometry y="180" width="220" height="30" as="geometry" />
        </mxCell>
        <mxCell id="C3HohyDAmdTFKAN3VmWp-31" value="" style="shape=partialRectangle;overflow=hidden;connectable=0;fillColor=none;top=0;left=0;bottom=0;right=0;" vertex="1" parent="C3HohyDAmdTFKAN3VmWp-30">
          <mxGeometry width="30" height="30" as="geometry" />
        </mxCell>
        <mxCell id="C3HohyDAmdTFKAN3VmWp-32" value="total_venta double" style="shape=partialRectangle;overflow=hidden;connectable=0;fillColor=none;top=0;left=0;bottom=0;right=0;align=left;spacingLeft=6;" vertex="1" parent="C3HohyDAmdTFKAN3VmWp-30">
          <mxGeometry x="30" width="190" height="30" as="geometry" />
        </mxCell>
        <mxCell id="C3HohyDAmdTFKAN3VmWp-33" value="" style="shape=partialRectangle;collapsible=0;dropTarget=0;pointerEvents=0;fillColor=none;points=[[0,0.5],[1,0.5]];portConstraint=eastwest;top=0;left=0;right=0;bottom=0;" vertex="1" parent="C-vyLk0tnHw3VtMMgP7b-23">
          <mxGeometry y="210" width="220" height="30" as="geometry" />
        </mxCell>
        <mxCell id="C3HohyDAmdTFKAN3VmWp-34" value="" style="shape=partialRectangle;overflow=hidden;connectable=0;fillColor=none;top=0;left=0;bottom=0;right=0;" vertex="1" parent="C3HohyDAmdTFKAN3VmWp-33">
          <mxGeometry width="30" height="30" as="geometry" />
        </mxCell>
        <mxCell id="C3HohyDAmdTFKAN3VmWp-35" value="total_costo double" style="shape=partialRectangle;overflow=hidden;connectable=0;fillColor=none;top=0;left=0;bottom=0;right=0;align=left;spacingLeft=6;" vertex="1" parent="C3HohyDAmdTFKAN3VmWp-33">
          <mxGeometry x="30" width="190" height="30" as="geometry" />
        </mxCell>
        <mxCell id="C3HohyDAmdTFKAN3VmWp-65" value="" style="edgeStyle=entityRelationEdgeStyle;fontSize=12;html=1;endArrow=ERmandOne;startArrow=ERmandOne;entryX=0;entryY=0.5;entryDx=0;entryDy=0;exitX=1.003;exitY=0.187;exitDx=0;exitDy=0;exitPerimeter=0;" edge="1" parent="1" source="C-vyLk0tnHw3VtMMgP7b-24" target="C-vyLk0tnHw3VtMMgP7b-6">
          <mxGeometry width="100" height="100" relative="1" as="geometry">
            <mxPoint x="230" y="300" as="sourcePoint" />
            <mxPoint x="330" y="200" as="targetPoint" />
          </mxGeometry>
        </mxCell>
        <mxCell id="C3HohyDAmdTFKAN3VmWp-121" value="DetalleFactura" style="shape=table;startSize=30;container=1;collapsible=1;childLayout=tableLayout;fixedRows=1;rowLines=0;fontStyle=1;align=center;resizeLast=1;" vertex="1" parent="1">
          <mxGeometry x="185" y="290" width="240" height="220" as="geometry" />
        </mxCell>
        <mxCell id="C3HohyDAmdTFKAN3VmWp-122" value="" style="shape=partialRectangle;collapsible=0;dropTarget=0;pointerEvents=0;fillColor=none;top=0;left=0;bottom=1;right=0;points=[[0,0.5],[1,0.5]];portConstraint=eastwest;" vertex="1" parent="C3HohyDAmdTFKAN3VmWp-121">
          <mxGeometry y="30" width="240" height="30" as="geometry" />
        </mxCell>
        <mxCell id="C3HohyDAmdTFKAN3VmWp-123" value="PK" style="shape=partialRectangle;connectable=0;fillColor=none;top=0;left=0;bottom=0;right=0;fontStyle=1;overflow=hidden;" vertex="1" parent="C3HohyDAmdTFKAN3VmWp-122">
          <mxGeometry width="30" height="30" as="geometry" />
        </mxCell>
        <mxCell id="C3HohyDAmdTFKAN3VmWp-124" value="id_detallefactura int NOT NULL" style="shape=partialRectangle;connectable=0;fillColor=none;top=0;left=0;bottom=0;right=0;align=left;spacingLeft=6;fontStyle=5;overflow=hidden;" vertex="1" parent="C3HohyDAmdTFKAN3VmWp-122">
          <mxGeometry x="30" width="210" height="30" as="geometry" />
        </mxCell>
        <mxCell id="C3HohyDAmdTFKAN3VmWp-135" value="" style="shape=partialRectangle;collapsible=0;dropTarget=0;pointerEvents=0;fillColor=none;top=0;left=0;bottom=0;right=0;points=[[0,0.5],[1,0.5]];portConstraint=eastwest;" vertex="1" parent="C3HohyDAmdTFKAN3VmWp-121">
          <mxGeometry y="60" width="240" height="30" as="geometry" />
        </mxCell>
        <mxCell id="C3HohyDAmdTFKAN3VmWp-136" value="FK" style="shape=partialRectangle;connectable=0;fillColor=none;top=0;left=0;bottom=0;right=0;fontStyle=0;overflow=hidden;" vertex="1" parent="C3HohyDAmdTFKAN3VmWp-135">
          <mxGeometry width="30" height="30" as="geometry" />
        </mxCell>
        <mxCell id="C3HohyDAmdTFKAN3VmWp-137" value="id_factura" style="shape=partialRectangle;connectable=0;fillColor=none;top=0;left=0;bottom=0;right=0;align=left;spacingLeft=6;fontStyle=0;overflow=hidden;" vertex="1" parent="C3HohyDAmdTFKAN3VmWp-135">
          <mxGeometry x="30" width="210" height="30" as="geometry" />
        </mxCell>
        <mxCell id="C3HohyDAmdTFKAN3VmWp-179" value="" style="shape=partialRectangle;collapsible=0;dropTarget=0;pointerEvents=0;fillColor=none;top=0;left=0;bottom=0;right=0;points=[[0,0.5],[1,0.5]];portConstraint=eastwest;" vertex="1" parent="C3HohyDAmdTFKAN3VmWp-121">
          <mxGeometry y="90" width="240" height="30" as="geometry" />
        </mxCell>
        <mxCell id="C3HohyDAmdTFKAN3VmWp-180" value="FK" style="shape=partialRectangle;connectable=0;fillColor=none;top=0;left=0;bottom=0;right=0;fontStyle=0;overflow=hidden;" vertex="1" parent="C3HohyDAmdTFKAN3VmWp-179">
          <mxGeometry width="30" height="30" as="geometry" />
        </mxCell>
        <mxCell id="C3HohyDAmdTFKAN3VmWp-181" value="id_articulo_manu int NOT NULL" style="shape=partialRectangle;connectable=0;fillColor=none;top=0;left=0;bottom=0;right=0;align=left;spacingLeft=6;fontStyle=0;overflow=hidden;" vertex="1" parent="C3HohyDAmdTFKAN3VmWp-179">
          <mxGeometry x="30" width="210" height="30" as="geometry" />
        </mxCell>
        <mxCell id="C3HohyDAmdTFKAN3VmWp-182" value="" style="shape=partialRectangle;collapsible=0;dropTarget=0;pointerEvents=0;fillColor=none;top=0;left=0;bottom=0;right=0;points=[[0,0.5],[1,0.5]];portConstraint=eastwest;" vertex="1" parent="C3HohyDAmdTFKAN3VmWp-121">
          <mxGeometry y="120" width="240" height="30" as="geometry" />
        </mxCell>
        <mxCell id="C3HohyDAmdTFKAN3VmWp-183" value="FK" style="shape=partialRectangle;connectable=0;fillColor=none;top=0;left=0;bottom=0;right=0;fontStyle=0;overflow=hidden;" vertex="1" parent="C3HohyDAmdTFKAN3VmWp-182">
          <mxGeometry width="30" height="30" as="geometry" />
        </mxCell>
        <mxCell id="C3HohyDAmdTFKAN3VmWp-184" value="id_articulo_insumo int NOT NULL" style="shape=partialRectangle;connectable=0;fillColor=none;top=0;left=0;bottom=0;right=0;align=left;spacingLeft=6;fontStyle=0;overflow=hidden;" vertex="1" parent="C3HohyDAmdTFKAN3VmWp-182">
          <mxGeometry x="30" width="210" height="30" as="geometry" />
        </mxCell>
        <mxCell id="C3HohyDAmdTFKAN3VmWp-131" value="" style="shape=partialRectangle;collapsible=0;dropTarget=0;pointerEvents=0;fillColor=none;top=0;left=0;bottom=0;right=0;points=[[0,0.5],[1,0.5]];portConstraint=eastwest;" vertex="1" parent="C3HohyDAmdTFKAN3VmWp-121">
          <mxGeometry y="150" width="240" height="30" as="geometry" />
        </mxCell>
        <mxCell id="C3HohyDAmdTFKAN3VmWp-132" value="" style="shape=partialRectangle;connectable=0;fillColor=none;top=0;left=0;bottom=0;right=0;editable=1;overflow=hidden;" vertex="1" parent="C3HohyDAmdTFKAN3VmWp-131">
          <mxGeometry width="30" height="30" as="geometry" />
        </mxCell>
        <mxCell id="C3HohyDAmdTFKAN3VmWp-133" value="subtotal double NOT NULL" style="shape=partialRectangle;connectable=0;fillColor=none;top=0;left=0;bottom=0;right=0;align=left;spacingLeft=6;overflow=hidden;" vertex="1" parent="C3HohyDAmdTFKAN3VmWp-131">
          <mxGeometry x="30" width="210" height="30" as="geometry" />
        </mxCell>
        <mxCell id="C3HohyDAmdTFKAN3VmWp-128" value="" style="shape=partialRectangle;collapsible=0;dropTarget=0;pointerEvents=0;fillColor=none;top=0;left=0;bottom=0;right=0;points=[[0,0.5],[1,0.5]];portConstraint=eastwest;" vertex="1" parent="C3HohyDAmdTFKAN3VmWp-121">
          <mxGeometry y="180" width="240" height="30" as="geometry" />
        </mxCell>
        <mxCell id="C3HohyDAmdTFKAN3VmWp-129" value="" style="shape=partialRectangle;connectable=0;fillColor=none;top=0;left=0;bottom=0;right=0;editable=1;overflow=hidden;" vertex="1" parent="C3HohyDAmdTFKAN3VmWp-128">
          <mxGeometry width="30" height="30" as="geometry" />
        </mxCell>
        <mxCell id="C3HohyDAmdTFKAN3VmWp-130" value="cantidad int NOT NULL" style="shape=partialRectangle;connectable=0;fillColor=none;top=0;left=0;bottom=0;right=0;align=left;spacingLeft=6;overflow=hidden;" vertex="1" parent="C3HohyDAmdTFKAN3VmWp-128">
          <mxGeometry x="30" width="210" height="30" as="geometry" />
        </mxCell>
        <mxCell id="C3HohyDAmdTFKAN3VmWp-146" value="DetallePedido" style="shape=table;startSize=30;container=1;collapsible=1;childLayout=tableLayout;fixedRows=1;rowLines=0;fontStyle=1;align=center;resizeLast=1;" vertex="1" parent="1">
          <mxGeometry x="1000" y="90" width="240" height="240" as="geometry" />
        </mxCell>
        <mxCell id="C3HohyDAmdTFKAN3VmWp-147" value="" style="shape=partialRectangle;collapsible=0;dropTarget=0;pointerEvents=0;fillColor=none;top=0;left=0;bottom=1;right=0;points=[[0,0.5],[1,0.5]];portConstraint=eastwest;" vertex="1" parent="C3HohyDAmdTFKAN3VmWp-146">
          <mxGeometry y="30" width="240" height="30" as="geometry" />
        </mxCell>
        <mxCell id="C3HohyDAmdTFKAN3VmWp-148" value="PK" style="shape=partialRectangle;connectable=0;fillColor=none;top=0;left=0;bottom=0;right=0;fontStyle=1;overflow=hidden;" vertex="1" parent="C3HohyDAmdTFKAN3VmWp-147">
          <mxGeometry width="30" height="30" as="geometry" />
        </mxCell>
        <mxCell id="C3HohyDAmdTFKAN3VmWp-149" value="id_detalle_pedido int NOT NULL" style="shape=partialRectangle;connectable=0;fillColor=none;top=0;left=0;bottom=0;right=0;align=left;spacingLeft=6;fontStyle=5;overflow=hidden;" vertex="1" parent="C3HohyDAmdTFKAN3VmWp-147">
          <mxGeometry x="30" width="210" height="30" as="geometry" />
        </mxCell>
        <mxCell id="C3HohyDAmdTFKAN3VmWp-436" value="" style="shape=partialRectangle;collapsible=0;dropTarget=0;pointerEvents=0;fillColor=none;top=0;left=0;bottom=0;right=0;points=[[0,0.5],[1,0.5]];portConstraint=eastwest;" vertex="1" parent="C3HohyDAmdTFKAN3VmWp-146">
          <mxGeometry y="60" width="240" height="30" as="geometry" />
        </mxCell>
        <mxCell id="C3HohyDAmdTFKAN3VmWp-437" value="FK" style="shape=partialRectangle;connectable=0;fillColor=none;top=0;left=0;bottom=0;right=0;fontStyle=0;overflow=hidden;" vertex="1" parent="C3HohyDAmdTFKAN3VmWp-436">
          <mxGeometry width="30" height="30" as="geometry" />
        </mxCell>
        <mxCell id="C3HohyDAmdTFKAN3VmWp-438" value="id_pedido int NOT NULL" style="shape=partialRectangle;connectable=0;fillColor=none;top=0;left=0;bottom=0;right=0;align=left;spacingLeft=6;fontStyle=0;overflow=hidden;" vertex="1" parent="C3HohyDAmdTFKAN3VmWp-436">
          <mxGeometry x="30" width="210" height="30" as="geometry" />
        </mxCell>
        <mxCell id="C3HohyDAmdTFKAN3VmWp-186" value="" style="shape=partialRectangle;collapsible=0;dropTarget=0;pointerEvents=0;fillColor=none;top=0;left=0;bottom=0;right=0;points=[[0,0.5],[1,0.5]];portConstraint=eastwest;" vertex="1" parent="C3HohyDAmdTFKAN3VmWp-146">
          <mxGeometry y="90" width="240" height="30" as="geometry" />
        </mxCell>
        <mxCell id="C3HohyDAmdTFKAN3VmWp-187" value="FK" style="shape=partialRectangle;connectable=0;fillColor=none;top=0;left=0;bottom=0;right=0;fontStyle=0;overflow=hidden;" vertex="1" parent="C3HohyDAmdTFKAN3VmWp-186">
          <mxGeometry width="30" height="30" as="geometry" />
        </mxCell>
        <mxCell id="C3HohyDAmdTFKAN3VmWp-188" value="id_articulo_manu int NOT NULL" style="shape=partialRectangle;connectable=0;fillColor=none;top=0;left=0;bottom=0;right=0;align=left;spacingLeft=6;fontStyle=0;overflow=hidden;" vertex="1" parent="C3HohyDAmdTFKAN3VmWp-186">
          <mxGeometry x="30" width="210" height="30" as="geometry" />
        </mxCell>
        <mxCell id="C3HohyDAmdTFKAN3VmWp-189" value="" style="shape=partialRectangle;collapsible=0;dropTarget=0;pointerEvents=0;fillColor=none;top=0;left=0;bottom=0;right=0;points=[[0,0.5],[1,0.5]];portConstraint=eastwest;" vertex="1" parent="C3HohyDAmdTFKAN3VmWp-146">
          <mxGeometry y="120" width="240" height="30" as="geometry" />
        </mxCell>
        <mxCell id="C3HohyDAmdTFKAN3VmWp-190" value="FK" style="shape=partialRectangle;connectable=0;fillColor=none;top=0;left=0;bottom=0;right=0;fontStyle=0;overflow=hidden;" vertex="1" parent="C3HohyDAmdTFKAN3VmWp-189">
          <mxGeometry width="30" height="30" as="geometry" />
        </mxCell>
        <mxCell id="C3HohyDAmdTFKAN3VmWp-191" value="id_articulo_insumo int" style="shape=partialRectangle;connectable=0;fillColor=none;top=0;left=0;bottom=0;right=0;align=left;spacingLeft=6;fontStyle=0;overflow=hidden;" vertex="1" parent="C3HohyDAmdTFKAN3VmWp-189">
          <mxGeometry x="30" width="210" height="30" as="geometry" />
        </mxCell>
        <mxCell id="C3HohyDAmdTFKAN3VmWp-153" value="" style="shape=partialRectangle;collapsible=0;dropTarget=0;pointerEvents=0;fillColor=none;top=0;left=0;bottom=0;right=0;points=[[0,0.5],[1,0.5]];portConstraint=eastwest;" vertex="1" parent="C3HohyDAmdTFKAN3VmWp-146">
          <mxGeometry y="150" width="240" height="30" as="geometry" />
        </mxCell>
        <mxCell id="C3HohyDAmdTFKAN3VmWp-154" value="" style="shape=partialRectangle;connectable=0;fillColor=none;top=0;left=0;bottom=0;right=0;editable=1;overflow=hidden;" vertex="1" parent="C3HohyDAmdTFKAN3VmWp-153">
          <mxGeometry width="30" height="30" as="geometry" />
        </mxCell>
        <mxCell id="C3HohyDAmdTFKAN3VmWp-155" value="cantidad int NOT NULL" style="shape=partialRectangle;connectable=0;fillColor=none;top=0;left=0;bottom=0;right=0;align=left;spacingLeft=6;overflow=hidden;" vertex="1" parent="C3HohyDAmdTFKAN3VmWp-153">
          <mxGeometry x="30" width="210" height="30" as="geometry" />
        </mxCell>
        <mxCell id="C3HohyDAmdTFKAN3VmWp-156" value="" style="shape=partialRectangle;collapsible=0;dropTarget=0;pointerEvents=0;fillColor=none;top=0;left=0;bottom=0;right=0;points=[[0,0.5],[1,0.5]];portConstraint=eastwest;" vertex="1" parent="C3HohyDAmdTFKAN3VmWp-146">
          <mxGeometry y="180" width="240" height="30" as="geometry" />
        </mxCell>
        <mxCell id="C3HohyDAmdTFKAN3VmWp-157" value="" style="shape=partialRectangle;connectable=0;fillColor=none;top=0;left=0;bottom=0;right=0;editable=1;overflow=hidden;" vertex="1" parent="C3HohyDAmdTFKAN3VmWp-156">
          <mxGeometry width="30" height="30" as="geometry" />
        </mxCell>
        <mxCell id="C3HohyDAmdTFKAN3VmWp-158" value="subtotal double NOT NULL" style="shape=partialRectangle;connectable=0;fillColor=none;top=0;left=0;bottom=0;right=0;align=left;spacingLeft=6;overflow=hidden;" vertex="1" parent="C3HohyDAmdTFKAN3VmWp-156">
          <mxGeometry x="30" width="210" height="30" as="geometry" />
        </mxCell>
        <mxCell id="C3HohyDAmdTFKAN3VmWp-192" value="ArticuloManuFacturado" style="shape=table;startSize=30;container=1;collapsible=1;childLayout=tableLayout;fixedRows=1;rowLines=0;fontStyle=1;align=center;resizeLast=1;" vertex="1" parent="1">
          <mxGeometry x="510" y="70" width="230" height="240" as="geometry">
            <mxRectangle x="335" y="160" width="170" height="30" as="alternateBounds" />
          </mxGeometry>
        </mxCell>
        <mxCell id="C3HohyDAmdTFKAN3VmWp-193" value="" style="shape=partialRectangle;collapsible=0;dropTarget=0;pointerEvents=0;fillColor=none;top=0;left=0;bottom=1;right=0;points=[[0,0.5],[1,0.5]];portConstraint=eastwest;" vertex="1" parent="C3HohyDAmdTFKAN3VmWp-192">
          <mxGeometry y="30" width="230" height="30" as="geometry" />
        </mxCell>
        <mxCell id="C3HohyDAmdTFKAN3VmWp-194" value="PK" style="shape=partialRectangle;connectable=0;fillColor=none;top=0;left=0;bottom=0;right=0;fontStyle=1;overflow=hidden;" vertex="1" parent="C3HohyDAmdTFKAN3VmWp-193">
          <mxGeometry width="30" height="30" as="geometry" />
        </mxCell>
        <mxCell id="C3HohyDAmdTFKAN3VmWp-195" value="id_articulo_manu int NOT NULL" style="shape=partialRectangle;connectable=0;fillColor=none;top=0;left=0;bottom=0;right=0;align=left;spacingLeft=6;fontStyle=5;overflow=hidden;" vertex="1" parent="C3HohyDAmdTFKAN3VmWp-193">
          <mxGeometry x="30" width="200" height="30" as="geometry" />
        </mxCell>
        <mxCell id="C3HohyDAmdTFKAN3VmWp-419" value="" style="shape=partialRectangle;collapsible=0;dropTarget=0;pointerEvents=0;fillColor=none;top=0;left=0;bottom=0;right=0;points=[[0,0.5],[1,0.5]];portConstraint=eastwest;" vertex="1" parent="C3HohyDAmdTFKAN3VmWp-192">
          <mxGeometry y="60" width="230" height="30" as="geometry" />
        </mxCell>
        <mxCell id="C3HohyDAmdTFKAN3VmWp-420" value="FK" style="shape=partialRectangle;connectable=0;fillColor=none;top=0;left=0;bottom=0;right=0;fontStyle=0;overflow=hidden;" vertex="1" parent="C3HohyDAmdTFKAN3VmWp-419">
          <mxGeometry width="30" height="30" as="geometry" />
        </mxCell>
        <mxCell id="C3HohyDAmdTFKAN3VmWp-421" value="id_rubro_general int NOT NULL" style="shape=partialRectangle;connectable=0;fillColor=none;top=0;left=0;bottom=0;right=0;align=left;spacingLeft=6;fontStyle=0;overflow=hidden;" vertex="1" parent="C3HohyDAmdTFKAN3VmWp-419">
          <mxGeometry x="30" width="200" height="30" as="geometry" />
        </mxCell>
        <mxCell id="C3HohyDAmdTFKAN3VmWp-196" value="" style="shape=partialRectangle;collapsible=0;dropTarget=0;pointerEvents=0;fillColor=none;top=0;left=0;bottom=0;right=0;points=[[0,0.5],[1,0.5]];portConstraint=eastwest;" vertex="1" parent="C3HohyDAmdTFKAN3VmWp-192">
          <mxGeometry y="90" width="230" height="30" as="geometry" />
        </mxCell>
        <mxCell id="C3HohyDAmdTFKAN3VmWp-197" value="" style="shape=partialRectangle;connectable=0;fillColor=none;top=0;left=0;bottom=0;right=0;editable=1;overflow=hidden;" vertex="1" parent="C3HohyDAmdTFKAN3VmWp-196">
          <mxGeometry width="30" height="30" as="geometry" />
        </mxCell>
        <mxCell id="C3HohyDAmdTFKAN3VmWp-198" value="tmp_est_cocina int" style="shape=partialRectangle;connectable=0;fillColor=none;top=0;left=0;bottom=0;right=0;align=left;spacingLeft=6;overflow=hidden;" vertex="1" parent="C3HohyDAmdTFKAN3VmWp-196">
          <mxGeometry x="30" width="200" height="30" as="geometry" />
        </mxCell>
        <mxCell id="C3HohyDAmdTFKAN3VmWp-199" value="" style="shape=partialRectangle;collapsible=0;dropTarget=0;pointerEvents=0;fillColor=none;top=0;left=0;bottom=0;right=0;points=[[0,0.5],[1,0.5]];portConstraint=eastwest;" vertex="1" parent="C3HohyDAmdTFKAN3VmWp-192">
          <mxGeometry y="120" width="230" height="30" as="geometry" />
        </mxCell>
        <mxCell id="C3HohyDAmdTFKAN3VmWp-200" value="" style="shape=partialRectangle;connectable=0;fillColor=none;top=0;left=0;bottom=0;right=0;editable=1;overflow=hidden;" vertex="1" parent="C3HohyDAmdTFKAN3VmWp-199">
          <mxGeometry width="30" height="30" as="geometry" />
        </mxCell>
        <mxCell id="C3HohyDAmdTFKAN3VmWp-201" value="denominacion string" style="shape=partialRectangle;connectable=0;fillColor=none;top=0;left=0;bottom=0;right=0;align=left;spacingLeft=6;overflow=hidden;" vertex="1" parent="C3HohyDAmdTFKAN3VmWp-199">
          <mxGeometry x="30" width="200" height="30" as="geometry" />
        </mxCell>
        <mxCell id="C3HohyDAmdTFKAN3VmWp-202" value="" style="shape=partialRectangle;collapsible=0;dropTarget=0;pointerEvents=0;fillColor=none;top=0;left=0;bottom=0;right=0;points=[[0,0.5],[1,0.5]];portConstraint=eastwest;" vertex="1" parent="C3HohyDAmdTFKAN3VmWp-192">
          <mxGeometry y="150" width="230" height="30" as="geometry" />
        </mxCell>
        <mxCell id="C3HohyDAmdTFKAN3VmWp-203" value="" style="shape=partialRectangle;connectable=0;fillColor=none;top=0;left=0;bottom=0;right=0;editable=1;overflow=hidden;" vertex="1" parent="C3HohyDAmdTFKAN3VmWp-202">
          <mxGeometry width="30" height="30" as="geometry" />
        </mxCell>
        <mxCell id="C3HohyDAmdTFKAN3VmWp-204" value="precio_vta long" style="shape=partialRectangle;connectable=0;fillColor=none;top=0;left=0;bottom=0;right=0;align=left;spacingLeft=6;overflow=hidden;" vertex="1" parent="C3HohyDAmdTFKAN3VmWp-202">
          <mxGeometry x="30" width="200" height="30" as="geometry" />
        </mxCell>
        <mxCell id="C3HohyDAmdTFKAN3VmWp-412" value="" style="shape=partialRectangle;collapsible=0;dropTarget=0;pointerEvents=0;fillColor=none;top=0;left=0;bottom=0;right=0;points=[[0,0.5],[1,0.5]];portConstraint=eastwest;" vertex="1" parent="C3HohyDAmdTFKAN3VmWp-192">
          <mxGeometry y="180" width="230" height="30" as="geometry" />
        </mxCell>
        <mxCell id="C3HohyDAmdTFKAN3VmWp-413" value="" style="shape=partialRectangle;connectable=0;fillColor=none;top=0;left=0;bottom=0;right=0;editable=1;overflow=hidden;" vertex="1" parent="C3HohyDAmdTFKAN3VmWp-412">
          <mxGeometry width="30" height="30" as="geometry" />
        </mxCell>
        <mxCell id="C3HohyDAmdTFKAN3VmWp-414" value="imagen string" style="shape=partialRectangle;connectable=0;fillColor=none;top=0;left=0;bottom=0;right=0;align=left;spacingLeft=6;overflow=hidden;" vertex="1" parent="C3HohyDAmdTFKAN3VmWp-412">
          <mxGeometry x="30" width="200" height="30" as="geometry" />
        </mxCell>
        <mxCell id="C3HohyDAmdTFKAN3VmWp-415" value="" style="shape=partialRectangle;collapsible=0;dropTarget=0;pointerEvents=0;fillColor=none;top=0;left=0;bottom=0;right=0;points=[[0,0.5],[1,0.5]];portConstraint=eastwest;" vertex="1" parent="C3HohyDAmdTFKAN3VmWp-192">
          <mxGeometry y="210" width="230" height="30" as="geometry" />
        </mxCell>
        <mxCell id="C3HohyDAmdTFKAN3VmWp-416" value="" style="shape=partialRectangle;connectable=0;fillColor=none;top=0;left=0;bottom=0;right=0;editable=1;overflow=hidden;" vertex="1" parent="C3HohyDAmdTFKAN3VmWp-415">
          <mxGeometry width="30" height="30" as="geometry" />
        </mxCell>
        <mxCell id="C3HohyDAmdTFKAN3VmWp-417" value="imagen string" style="shape=partialRectangle;connectable=0;fillColor=none;top=0;left=0;bottom=0;right=0;align=left;spacingLeft=6;overflow=hidden;" vertex="1" parent="C3HohyDAmdTFKAN3VmWp-415">
          <mxGeometry x="30" width="200" height="30" as="geometry" />
        </mxCell>
        <mxCell id="C3HohyDAmdTFKAN3VmWp-205" value="Cliente" style="shape=table;startSize=30;container=1;collapsible=1;childLayout=tableLayout;fixedRows=1;rowLines=0;fontStyle=1;align=center;resizeLast=1;" vertex="1" parent="1">
          <mxGeometry x="450" y="-450" width="250" height="210" as="geometry" />
        </mxCell>
        <mxCell id="C3HohyDAmdTFKAN3VmWp-206" value="" style="shape=partialRectangle;collapsible=0;dropTarget=0;pointerEvents=0;fillColor=none;top=0;left=0;bottom=1;right=0;points=[[0,0.5],[1,0.5]];portConstraint=eastwest;" vertex="1" parent="C3HohyDAmdTFKAN3VmWp-205">
          <mxGeometry y="30" width="250" height="30" as="geometry" />
        </mxCell>
        <mxCell id="C3HohyDAmdTFKAN3VmWp-207" value="PK" style="shape=partialRectangle;connectable=0;fillColor=none;top=0;left=0;bottom=0;right=0;fontStyle=1;overflow=hidden;" vertex="1" parent="C3HohyDAmdTFKAN3VmWp-206">
          <mxGeometry width="30" height="30" as="geometry" />
        </mxCell>
        <mxCell id="C3HohyDAmdTFKAN3VmWp-208" value="id_cliente int NOT NULL" style="shape=partialRectangle;connectable=0;fillColor=none;top=0;left=0;bottom=0;right=0;align=left;spacingLeft=6;fontStyle=5;overflow=hidden;" vertex="1" parent="C3HohyDAmdTFKAN3VmWp-206">
          <mxGeometry x="30" width="220" height="30" as="geometry" />
        </mxCell>
        <mxCell id="C3HohyDAmdTFKAN3VmWp-495" value="" style="shape=partialRectangle;collapsible=0;dropTarget=0;pointerEvents=0;fillColor=none;top=0;left=0;bottom=0;right=0;points=[[0,0.5],[1,0.5]];portConstraint=eastwest;" vertex="1" parent="C3HohyDAmdTFKAN3VmWp-205">
          <mxGeometry y="60" width="250" height="30" as="geometry" />
        </mxCell>
        <mxCell id="C3HohyDAmdTFKAN3VmWp-496" value="FK" style="shape=partialRectangle;connectable=0;fillColor=none;top=0;left=0;bottom=0;right=0;fontStyle=0;overflow=hidden;" vertex="1" parent="C3HohyDAmdTFKAN3VmWp-495">
          <mxGeometry width="30" height="30" as="geometry" />
        </mxCell>
        <mxCell id="C3HohyDAmdTFKAN3VmWp-497" value="id_domicilio int NOT NULL" style="shape=partialRectangle;connectable=0;fillColor=none;top=0;left=0;bottom=0;right=0;align=left;spacingLeft=6;fontStyle=0;overflow=hidden;" vertex="1" parent="C3HohyDAmdTFKAN3VmWp-495">
          <mxGeometry x="30" width="220" height="30" as="geometry" />
        </mxCell>
        <mxCell id="C3HohyDAmdTFKAN3VmWp-215" value="" style="shape=partialRectangle;collapsible=0;dropTarget=0;pointerEvents=0;fillColor=none;top=0;left=0;bottom=0;right=0;points=[[0,0.5],[1,0.5]];portConstraint=eastwest;" vertex="1" parent="C3HohyDAmdTFKAN3VmWp-205">
          <mxGeometry y="90" width="250" height="30" as="geometry" />
        </mxCell>
        <mxCell id="C3HohyDAmdTFKAN3VmWp-216" value="" style="shape=partialRectangle;connectable=0;fillColor=none;top=0;left=0;bottom=0;right=0;editable=1;overflow=hidden;" vertex="1" parent="C3HohyDAmdTFKAN3VmWp-215">
          <mxGeometry width="30" height="30" as="geometry" />
        </mxCell>
        <mxCell id="C3HohyDAmdTFKAN3VmWp-217" value="nombre string NOT NULL" style="shape=partialRectangle;connectable=0;fillColor=none;top=0;left=0;bottom=0;right=0;align=left;spacingLeft=6;overflow=hidden;" vertex="1" parent="C3HohyDAmdTFKAN3VmWp-215">
          <mxGeometry x="30" width="220" height="30" as="geometry" />
        </mxCell>
        <mxCell id="C3HohyDAmdTFKAN3VmWp-222" value="" style="shape=partialRectangle;collapsible=0;dropTarget=0;pointerEvents=0;fillColor=none;top=0;left=0;bottom=0;right=0;points=[[0,0.5],[1,0.5]];portConstraint=eastwest;" vertex="1" parent="C3HohyDAmdTFKAN3VmWp-205">
          <mxGeometry y="120" width="250" height="30" as="geometry" />
        </mxCell>
        <mxCell id="C3HohyDAmdTFKAN3VmWp-223" value="" style="shape=partialRectangle;connectable=0;fillColor=none;top=0;left=0;bottom=0;right=0;editable=1;overflow=hidden;" vertex="1" parent="C3HohyDAmdTFKAN3VmWp-222">
          <mxGeometry width="30" height="30" as="geometry" />
        </mxCell>
        <mxCell id="C3HohyDAmdTFKAN3VmWp-224" value="apellido string" style="shape=partialRectangle;connectable=0;fillColor=none;top=0;left=0;bottom=0;right=0;align=left;spacingLeft=6;overflow=hidden;" vertex="1" parent="C3HohyDAmdTFKAN3VmWp-222">
          <mxGeometry x="30" width="220" height="30" as="geometry" />
        </mxCell>
        <mxCell id="C3HohyDAmdTFKAN3VmWp-225" value="" style="shape=partialRectangle;collapsible=0;dropTarget=0;pointerEvents=0;fillColor=none;top=0;left=0;bottom=0;right=0;points=[[0,0.5],[1,0.5]];portConstraint=eastwest;" vertex="1" parent="C3HohyDAmdTFKAN3VmWp-205">
          <mxGeometry y="150" width="250" height="30" as="geometry" />
        </mxCell>
        <mxCell id="C3HohyDAmdTFKAN3VmWp-226" value="" style="shape=partialRectangle;connectable=0;fillColor=none;top=0;left=0;bottom=0;right=0;editable=1;overflow=hidden;" vertex="1" parent="C3HohyDAmdTFKAN3VmWp-225">
          <mxGeometry width="30" height="30" as="geometry" />
        </mxCell>
        <mxCell id="C3HohyDAmdTFKAN3VmWp-227" value="telefono long" style="shape=partialRectangle;connectable=0;fillColor=none;top=0;left=0;bottom=0;right=0;align=left;spacingLeft=6;overflow=hidden;" vertex="1" parent="C3HohyDAmdTFKAN3VmWp-225">
          <mxGeometry x="30" width="220" height="30" as="geometry" />
        </mxCell>
        <mxCell id="C3HohyDAmdTFKAN3VmWp-244" value="" style="shape=partialRectangle;collapsible=0;dropTarget=0;pointerEvents=0;fillColor=none;top=0;left=0;bottom=0;right=0;points=[[0,0.5],[1,0.5]];portConstraint=eastwest;" vertex="1" parent="C3HohyDAmdTFKAN3VmWp-205">
          <mxGeometry y="180" width="250" height="30" as="geometry" />
        </mxCell>
        <mxCell id="C3HohyDAmdTFKAN3VmWp-245" value="" style="shape=partialRectangle;connectable=0;fillColor=none;top=0;left=0;bottom=0;right=0;editable=1;overflow=hidden;" vertex="1" parent="C3HohyDAmdTFKAN3VmWp-244">
          <mxGeometry width="30" height="30" as="geometry" />
        </mxCell>
        <mxCell id="C3HohyDAmdTFKAN3VmWp-246" value="email string" style="shape=partialRectangle;connectable=0;fillColor=none;top=0;left=0;bottom=0;right=0;align=left;spacingLeft=6;overflow=hidden;" vertex="1" parent="C3HohyDAmdTFKAN3VmWp-244">
          <mxGeometry x="30" width="220" height="30" as="geometry" />
        </mxCell>
        <mxCell id="C3HohyDAmdTFKAN3VmWp-248" value="Usuario" style="shape=table;startSize=30;container=1;collapsible=1;childLayout=tableLayout;fixedRows=1;rowLines=0;fontStyle=1;align=center;resizeLast=1;" vertex="1" parent="1">
          <mxGeometry x="77.5" y="-600" width="220" height="210" as="geometry" />
        </mxCell>
        <mxCell id="C3HohyDAmdTFKAN3VmWp-249" value="" style="shape=partialRectangle;collapsible=0;dropTarget=0;pointerEvents=0;fillColor=none;top=0;left=0;bottom=1;right=0;points=[[0,0.5],[1,0.5]];portConstraint=eastwest;" vertex="1" parent="C3HohyDAmdTFKAN3VmWp-248">
          <mxGeometry y="30" width="220" height="30" as="geometry" />
        </mxCell>
        <mxCell id="C3HohyDAmdTFKAN3VmWp-250" value="PK" style="shape=partialRectangle;connectable=0;fillColor=none;top=0;left=0;bottom=0;right=0;fontStyle=1;overflow=hidden;" vertex="1" parent="C3HohyDAmdTFKAN3VmWp-249">
          <mxGeometry width="30" height="30" as="geometry" />
        </mxCell>
        <mxCell id="C3HohyDAmdTFKAN3VmWp-251" value="id_usuario int NOT NULL" style="shape=partialRectangle;connectable=0;fillColor=none;top=0;left=0;bottom=0;right=0;align=left;spacingLeft=6;fontStyle=5;overflow=hidden;" vertex="1" parent="C3HohyDAmdTFKAN3VmWp-249">
          <mxGeometry x="30" width="190" height="30" as="geometry" />
        </mxCell>
        <mxCell id="C3HohyDAmdTFKAN3VmWp-270" value="" style="shape=partialRectangle;collapsible=0;dropTarget=0;pointerEvents=0;fillColor=none;top=0;left=0;bottom=0;right=0;points=[[0,0.5],[1,0.5]];portConstraint=eastwest;" vertex="1" parent="C3HohyDAmdTFKAN3VmWp-248">
          <mxGeometry y="60" width="220" height="30" as="geometry" />
        </mxCell>
        <mxCell id="C3HohyDAmdTFKAN3VmWp-271" value="FK" style="shape=partialRectangle;connectable=0;fillColor=none;top=0;left=0;bottom=0;right=0;fontStyle=0;overflow=hidden;" vertex="1" parent="C3HohyDAmdTFKAN3VmWp-270">
          <mxGeometry width="30" height="30" as="geometry" />
        </mxCell>
        <mxCell id="C3HohyDAmdTFKAN3VmWp-272" value="id_rol int NOT NULL" style="shape=partialRectangle;connectable=0;fillColor=none;top=0;left=0;bottom=0;right=0;align=left;spacingLeft=6;fontStyle=0;overflow=hidden;" vertex="1" parent="C3HohyDAmdTFKAN3VmWp-270">
          <mxGeometry x="30" width="190" height="30" as="geometry" />
        </mxCell>
        <mxCell id="C3HohyDAmdTFKAN3VmWp-328" value="" style="shape=partialRectangle;collapsible=0;dropTarget=0;pointerEvents=0;fillColor=none;top=0;left=0;bottom=0;right=0;points=[[0,0.5],[1,0.5]];portConstraint=eastwest;" vertex="1" parent="C3HohyDAmdTFKAN3VmWp-248">
          <mxGeometry y="90" width="220" height="30" as="geometry" />
        </mxCell>
        <mxCell id="C3HohyDAmdTFKAN3VmWp-329" value="FK" style="shape=partialRectangle;connectable=0;fillColor=none;top=0;left=0;bottom=0;right=0;fontStyle=0;overflow=hidden;" vertex="1" parent="C3HohyDAmdTFKAN3VmWp-328">
          <mxGeometry width="30" height="30" as="geometry" />
        </mxCell>
        <mxCell id="C3HohyDAmdTFKAN3VmWp-330" value="id_cliente int NOT NULL" style="shape=partialRectangle;connectable=0;fillColor=none;top=0;left=0;bottom=0;right=0;align=left;spacingLeft=6;fontStyle=0;overflow=hidden;" vertex="1" parent="C3HohyDAmdTFKAN3VmWp-328">
          <mxGeometry x="30" width="190" height="30" as="geometry" />
        </mxCell>
        <mxCell id="C3HohyDAmdTFKAN3VmWp-263" value="" style="shape=partialRectangle;collapsible=0;dropTarget=0;pointerEvents=0;fillColor=none;top=0;left=0;bottom=0;right=0;points=[[0,0.5],[1,0.5]];portConstraint=eastwest;" vertex="1" parent="C3HohyDAmdTFKAN3VmWp-248">
          <mxGeometry y="120" width="220" height="30" as="geometry" />
        </mxCell>
        <mxCell id="C3HohyDAmdTFKAN3VmWp-264" value="" style="shape=partialRectangle;connectable=0;fillColor=none;top=0;left=0;bottom=0;right=0;editable=1;overflow=hidden;" vertex="1" parent="C3HohyDAmdTFKAN3VmWp-263">
          <mxGeometry width="30" height="30" as="geometry" />
        </mxCell>
        <mxCell id="C3HohyDAmdTFKAN3VmWp-265" value="usuario string NOT NULL" style="shape=partialRectangle;connectable=0;fillColor=none;top=0;left=0;bottom=0;right=0;align=left;spacingLeft=6;overflow=hidden;" vertex="1" parent="C3HohyDAmdTFKAN3VmWp-263">
          <mxGeometry x="30" width="190" height="30" as="geometry" />
        </mxCell>
        <mxCell id="C3HohyDAmdTFKAN3VmWp-266" value="" style="shape=partialRectangle;collapsible=0;dropTarget=0;pointerEvents=0;fillColor=none;top=0;left=0;bottom=0;right=0;points=[[0,0.5],[1,0.5]];portConstraint=eastwest;" vertex="1" parent="C3HohyDAmdTFKAN3VmWp-248">
          <mxGeometry y="150" width="220" height="30" as="geometry" />
        </mxCell>
        <mxCell id="C3HohyDAmdTFKAN3VmWp-267" value="" style="shape=partialRectangle;connectable=0;fillColor=none;top=0;left=0;bottom=0;right=0;editable=1;overflow=hidden;" vertex="1" parent="C3HohyDAmdTFKAN3VmWp-266">
          <mxGeometry width="30" height="30" as="geometry" />
        </mxCell>
        <mxCell id="C3HohyDAmdTFKAN3VmWp-268" value="clave string NOT NULL" style="shape=partialRectangle;connectable=0;fillColor=none;top=0;left=0;bottom=0;right=0;align=left;spacingLeft=6;overflow=hidden;" vertex="1" parent="C3HohyDAmdTFKAN3VmWp-266">
          <mxGeometry x="30" width="190" height="30" as="geometry" />
        </mxCell>
        <mxCell id="C3HohyDAmdTFKAN3VmWp-273" value="Rol" style="shape=table;startSize=30;container=1;collapsible=1;childLayout=tableLayout;fixedRows=1;rowLines=0;fontStyle=1;align=center;resizeLast=1;" vertex="1" parent="1">
          <mxGeometry x="430" y="-630" width="190" height="110" as="geometry" />
        </mxCell>
        <mxCell id="C3HohyDAmdTFKAN3VmWp-274" value="" style="shape=partialRectangle;collapsible=0;dropTarget=0;pointerEvents=0;fillColor=none;top=0;left=0;bottom=1;right=0;points=[[0,0.5],[1,0.5]];portConstraint=eastwest;" vertex="1" parent="C3HohyDAmdTFKAN3VmWp-273">
          <mxGeometry y="30" width="190" height="30" as="geometry" />
        </mxCell>
        <mxCell id="C3HohyDAmdTFKAN3VmWp-275" value="PK" style="shape=partialRectangle;connectable=0;fillColor=none;top=0;left=0;bottom=0;right=0;fontStyle=1;overflow=hidden;" vertex="1" parent="C3HohyDAmdTFKAN3VmWp-274">
          <mxGeometry width="30" height="30" as="geometry" />
        </mxCell>
        <mxCell id="C3HohyDAmdTFKAN3VmWp-276" value="id_rol int NOT NULL" style="shape=partialRectangle;connectable=0;fillColor=none;top=0;left=0;bottom=0;right=0;align=left;spacingLeft=6;fontStyle=5;overflow=hidden;" vertex="1" parent="C3HohyDAmdTFKAN3VmWp-274">
          <mxGeometry x="30" width="160" height="30" as="geometry" />
        </mxCell>
        <mxCell id="C3HohyDAmdTFKAN3VmWp-280" value="" style="shape=partialRectangle;collapsible=0;dropTarget=0;pointerEvents=0;fillColor=none;top=0;left=0;bottom=0;right=0;points=[[0,0.5],[1,0.5]];portConstraint=eastwest;" vertex="1" parent="C3HohyDAmdTFKAN3VmWp-273">
          <mxGeometry y="60" width="190" height="30" as="geometry" />
        </mxCell>
        <mxCell id="C3HohyDAmdTFKAN3VmWp-281" value="" style="shape=partialRectangle;connectable=0;fillColor=none;top=0;left=0;bottom=0;right=0;editable=1;overflow=hidden;" vertex="1" parent="C3HohyDAmdTFKAN3VmWp-280">
          <mxGeometry width="30" height="30" as="geometry" />
        </mxCell>
        <mxCell id="C3HohyDAmdTFKAN3VmWp-282" value="nombre string NOT NULL" style="shape=partialRectangle;connectable=0;fillColor=none;top=0;left=0;bottom=0;right=0;align=left;spacingLeft=6;overflow=hidden;" vertex="1" parent="C3HohyDAmdTFKAN3VmWp-280">
          <mxGeometry x="30" width="160" height="30" as="geometry" />
        </mxCell>
        <mxCell id="C3HohyDAmdTFKAN3VmWp-291" value="Domicilio" style="shape=table;startSize=30;container=1;collapsible=1;childLayout=tableLayout;fixedRows=1;rowLines=0;fontStyle=1;align=center;resizeLast=1;" vertex="1" parent="1">
          <mxGeometry x="120" y="-310" width="230" height="170" as="geometry" />
        </mxCell>
        <mxCell id="C3HohyDAmdTFKAN3VmWp-292" value="" style="shape=partialRectangle;collapsible=0;dropTarget=0;pointerEvents=0;fillColor=none;top=0;left=0;bottom=1;right=0;points=[[0,0.5],[1,0.5]];portConstraint=eastwest;" vertex="1" parent="C3HohyDAmdTFKAN3VmWp-291">
          <mxGeometry y="30" width="230" height="30" as="geometry" />
        </mxCell>
        <mxCell id="C3HohyDAmdTFKAN3VmWp-293" value="PK" style="shape=partialRectangle;connectable=0;fillColor=none;top=0;left=0;bottom=0;right=0;fontStyle=1;overflow=hidden;" vertex="1" parent="C3HohyDAmdTFKAN3VmWp-292">
          <mxGeometry width="30" height="30" as="geometry" />
        </mxCell>
        <mxCell id="C3HohyDAmdTFKAN3VmWp-294" value="id_domicilio int NOT NULL" style="shape=partialRectangle;connectable=0;fillColor=none;top=0;left=0;bottom=0;right=0;align=left;spacingLeft=6;fontStyle=5;overflow=hidden;" vertex="1" parent="C3HohyDAmdTFKAN3VmWp-292">
          <mxGeometry x="30" width="200" height="30" as="geometry" />
        </mxCell>
        <mxCell id="C3HohyDAmdTFKAN3VmWp-298" value="" style="shape=partialRectangle;collapsible=0;dropTarget=0;pointerEvents=0;fillColor=none;top=0;left=0;bottom=0;right=0;points=[[0,0.5],[1,0.5]];portConstraint=eastwest;" vertex="1" parent="C3HohyDAmdTFKAN3VmWp-291">
          <mxGeometry y="60" width="230" height="30" as="geometry" />
        </mxCell>
        <mxCell id="C3HohyDAmdTFKAN3VmWp-299" value="" style="shape=partialRectangle;connectable=0;fillColor=none;top=0;left=0;bottom=0;right=0;editable=1;overflow=hidden;" vertex="1" parent="C3HohyDAmdTFKAN3VmWp-298">
          <mxGeometry width="30" height="30" as="geometry" />
        </mxCell>
        <mxCell id="C3HohyDAmdTFKAN3VmWp-300" value="calle string NOT NULL" style="shape=partialRectangle;connectable=0;fillColor=none;top=0;left=0;bottom=0;right=0;align=left;spacingLeft=6;overflow=hidden;" vertex="1" parent="C3HohyDAmdTFKAN3VmWp-298">
          <mxGeometry x="30" width="200" height="30" as="geometry" />
        </mxCell>
        <mxCell id="C3HohyDAmdTFKAN3VmWp-301" value="" style="shape=partialRectangle;collapsible=0;dropTarget=0;pointerEvents=0;fillColor=none;top=0;left=0;bottom=0;right=0;points=[[0,0.5],[1,0.5]];portConstraint=eastwest;" vertex="1" parent="C3HohyDAmdTFKAN3VmWp-291">
          <mxGeometry y="90" width="230" height="30" as="geometry" />
        </mxCell>
        <mxCell id="C3HohyDAmdTFKAN3VmWp-302" value="" style="shape=partialRectangle;connectable=0;fillColor=none;top=0;left=0;bottom=0;right=0;editable=1;overflow=hidden;" vertex="1" parent="C3HohyDAmdTFKAN3VmWp-301">
          <mxGeometry width="30" height="30" as="geometry" />
        </mxCell>
        <mxCell id="C3HohyDAmdTFKAN3VmWp-303" value="numero int" style="shape=partialRectangle;connectable=0;fillColor=none;top=0;left=0;bottom=0;right=0;align=left;spacingLeft=6;overflow=hidden;" vertex="1" parent="C3HohyDAmdTFKAN3VmWp-301">
          <mxGeometry x="30" width="200" height="30" as="geometry" />
        </mxCell>
        <mxCell id="C3HohyDAmdTFKAN3VmWp-308" value="" style="shape=partialRectangle;collapsible=0;dropTarget=0;pointerEvents=0;fillColor=none;top=0;left=0;bottom=0;right=0;points=[[0,0.5],[1,0.5]];portConstraint=eastwest;" vertex="1" parent="C3HohyDAmdTFKAN3VmWp-291">
          <mxGeometry y="120" width="230" height="30" as="geometry" />
        </mxCell>
        <mxCell id="C3HohyDAmdTFKAN3VmWp-309" value="" style="shape=partialRectangle;connectable=0;fillColor=none;top=0;left=0;bottom=0;right=0;editable=1;overflow=hidden;" vertex="1" parent="C3HohyDAmdTFKAN3VmWp-308">
          <mxGeometry width="30" height="30" as="geometry" />
        </mxCell>
        <mxCell id="C3HohyDAmdTFKAN3VmWp-310" value="localidad string" style="shape=partialRectangle;connectable=0;fillColor=none;top=0;left=0;bottom=0;right=0;align=left;spacingLeft=6;overflow=hidden;" vertex="1" parent="C3HohyDAmdTFKAN3VmWp-308">
          <mxGeometry x="30" width="200" height="30" as="geometry" />
        </mxCell>
        <mxCell id="C3HohyDAmdTFKAN3VmWp-324" value="" style="edgeStyle=entityRelationEdgeStyle;fontSize=12;html=1;endArrow=ERmandOne;startArrow=ERmandOne;" edge="1" parent="1" source="C3HohyDAmdTFKAN3VmWp-328" target="C3HohyDAmdTFKAN3VmWp-206">
          <mxGeometry width="100" height="100" relative="1" as="geometry">
            <mxPoint x="1770" y="80" as="sourcePoint" />
            <mxPoint x="1870" y="-20" as="targetPoint" />
          </mxGeometry>
        </mxCell>
        <mxCell id="C3HohyDAmdTFKAN3VmWp-325" value="" style="edgeStyle=entityRelationEdgeStyle;fontSize=12;html=1;endArrow=ERmandOne;startArrow=ERmandOne;exitX=1;exitY=0.5;exitDx=0;exitDy=0;" edge="1" parent="1" source="C3HohyDAmdTFKAN3VmWp-270" target="C3HohyDAmdTFKAN3VmWp-274">
          <mxGeometry width="100" height="100" relative="1" as="geometry">
            <mxPoint x="1770" y="-40" as="sourcePoint" />
            <mxPoint x="1870" y="-140" as="targetPoint" />
          </mxGeometry>
        </mxCell>
        <mxCell id="C3HohyDAmdTFKAN3VmWp-331" value="RubroArticulo" style="shape=table;startSize=30;container=1;collapsible=1;childLayout=tableLayout;fixedRows=1;rowLines=0;fontStyle=1;align=center;resizeLast=1;" vertex="1" parent="1">
          <mxGeometry x="910" y="610" width="230" height="120" as="geometry">
            <mxRectangle x="730" y="450" width="120" height="30" as="alternateBounds" />
          </mxGeometry>
        </mxCell>
        <mxCell id="C3HohyDAmdTFKAN3VmWp-332" value="" style="shape=partialRectangle;collapsible=0;dropTarget=0;pointerEvents=0;fillColor=none;top=0;left=0;bottom=1;right=0;points=[[0,0.5],[1,0.5]];portConstraint=eastwest;" vertex="1" parent="C3HohyDAmdTFKAN3VmWp-331">
          <mxGeometry y="30" width="230" height="30" as="geometry" />
        </mxCell>
        <mxCell id="C3HohyDAmdTFKAN3VmWp-333" value="PK" style="shape=partialRectangle;connectable=0;fillColor=none;top=0;left=0;bottom=0;right=0;fontStyle=1;overflow=hidden;" vertex="1" parent="C3HohyDAmdTFKAN3VmWp-332">
          <mxGeometry width="30" height="30" as="geometry" />
        </mxCell>
        <mxCell id="C3HohyDAmdTFKAN3VmWp-334" value="id_rubro_articulo int NOT NULL" style="shape=partialRectangle;connectable=0;fillColor=none;top=0;left=0;bottom=0;right=0;align=left;spacingLeft=6;fontStyle=5;overflow=hidden;" vertex="1" parent="C3HohyDAmdTFKAN3VmWp-332">
          <mxGeometry x="30" width="200" height="30" as="geometry" />
        </mxCell>
        <mxCell id="C3HohyDAmdTFKAN3VmWp-345" value="" style="shape=partialRectangle;collapsible=0;dropTarget=0;pointerEvents=0;fillColor=none;top=0;left=0;bottom=0;right=0;points=[[0,0.5],[1,0.5]];portConstraint=eastwest;" vertex="1" parent="C3HohyDAmdTFKAN3VmWp-331">
          <mxGeometry y="60" width="230" height="30" as="geometry" />
        </mxCell>
        <mxCell id="C3HohyDAmdTFKAN3VmWp-346" value="FK" style="shape=partialRectangle;connectable=0;fillColor=none;top=0;left=0;bottom=0;right=0;fontStyle=0;overflow=hidden;" vertex="1" parent="C3HohyDAmdTFKAN3VmWp-345">
          <mxGeometry width="30" height="30" as="geometry" />
        </mxCell>
        <mxCell id="C3HohyDAmdTFKAN3VmWp-347" value="id_rubro_articulo int NOT NULL" style="shape=partialRectangle;connectable=0;fillColor=none;top=0;left=0;bottom=0;right=0;align=left;spacingLeft=6;fontStyle=0;overflow=hidden;" vertex="1" parent="C3HohyDAmdTFKAN3VmWp-345">
          <mxGeometry x="30" width="200" height="30" as="geometry" />
        </mxCell>
        <mxCell id="C3HohyDAmdTFKAN3VmWp-335" value="" style="shape=partialRectangle;collapsible=0;dropTarget=0;pointerEvents=0;fillColor=none;top=0;left=0;bottom=0;right=0;points=[[0,0.5],[1,0.5]];portConstraint=eastwest;" vertex="1" parent="C3HohyDAmdTFKAN3VmWp-331">
          <mxGeometry y="90" width="230" height="30" as="geometry" />
        </mxCell>
        <mxCell id="C3HohyDAmdTFKAN3VmWp-336" value="" style="shape=partialRectangle;connectable=0;fillColor=none;top=0;left=0;bottom=0;right=0;editable=1;overflow=hidden;" vertex="1" parent="C3HohyDAmdTFKAN3VmWp-335">
          <mxGeometry width="30" height="30" as="geometry" />
        </mxCell>
        <mxCell id="C3HohyDAmdTFKAN3VmWp-337" value="denominacion string" style="shape=partialRectangle;connectable=0;fillColor=none;top=0;left=0;bottom=0;right=0;align=left;spacingLeft=6;overflow=hidden;" vertex="1" parent="C3HohyDAmdTFKAN3VmWp-335">
          <mxGeometry x="30" width="200" height="30" as="geometry" />
        </mxCell>
        <mxCell id="C3HohyDAmdTFKAN3VmWp-454" value="" style="edgeStyle=entityRelationEdgeStyle;fontSize=12;html=1;endArrow=ERoneToMany;" edge="1" parent="C3HohyDAmdTFKAN3VmWp-331" source="C3HohyDAmdTFKAN3VmWp-332" target="C3HohyDAmdTFKAN3VmWp-345">
          <mxGeometry width="100" height="100" relative="1" as="geometry">
            <mxPoint y="-20" as="sourcePoint" />
            <mxPoint x="160" y="-130" as="targetPoint" />
          </mxGeometry>
        </mxCell>
        <mxCell id="C3HohyDAmdTFKAN3VmWp-349" value="ArticuloInsumo" style="shape=table;startSize=30;container=1;collapsible=1;childLayout=tableLayout;fixedRows=1;rowLines=0;fontStyle=1;align=center;resizeLast=1;" vertex="1" parent="1">
          <mxGeometry x="520" y="350" width="230" height="330" as="geometry">
            <mxRectangle x="630" y="240" width="120" height="30" as="alternateBounds" />
          </mxGeometry>
        </mxCell>
        <mxCell id="C3HohyDAmdTFKAN3VmWp-350" value="" style="shape=partialRectangle;collapsible=0;dropTarget=0;pointerEvents=0;fillColor=none;top=0;left=0;bottom=1;right=0;points=[[0,0.5],[1,0.5]];portConstraint=eastwest;" vertex="1" parent="C3HohyDAmdTFKAN3VmWp-349">
          <mxGeometry y="30" width="230" height="30" as="geometry" />
        </mxCell>
        <mxCell id="C3HohyDAmdTFKAN3VmWp-351" value="PK" style="shape=partialRectangle;connectable=0;fillColor=none;top=0;left=0;bottom=0;right=0;fontStyle=1;overflow=hidden;" vertex="1" parent="C3HohyDAmdTFKAN3VmWp-350">
          <mxGeometry width="30" height="30" as="geometry" />
        </mxCell>
        <mxCell id="C3HohyDAmdTFKAN3VmWp-352" value="id_articuloinsumo int NOT NULL" style="shape=partialRectangle;connectable=0;fillColor=none;top=0;left=0;bottom=0;right=0;align=left;spacingLeft=6;fontStyle=5;overflow=hidden;" vertex="1" parent="C3HohyDAmdTFKAN3VmWp-350">
          <mxGeometry x="30" width="200" height="30" as="geometry" />
        </mxCell>
        <mxCell id="C3HohyDAmdTFKAN3VmWp-391" value="" style="shape=partialRectangle;collapsible=0;dropTarget=0;pointerEvents=0;fillColor=none;top=0;left=0;bottom=0;right=0;points=[[0,0.5],[1,0.5]];portConstraint=eastwest;" vertex="1" parent="C3HohyDAmdTFKAN3VmWp-349">
          <mxGeometry y="60" width="230" height="30" as="geometry" />
        </mxCell>
        <mxCell id="C3HohyDAmdTFKAN3VmWp-392" value="FK" style="shape=partialRectangle;connectable=0;fillColor=none;top=0;left=0;bottom=0;right=0;fontStyle=0;overflow=hidden;" vertex="1" parent="C3HohyDAmdTFKAN3VmWp-391">
          <mxGeometry width="30" height="30" as="geometry" />
        </mxCell>
        <mxCell id="C3HohyDAmdTFKAN3VmWp-393" value="id_rubro_articulo int NOT NULL" style="shape=partialRectangle;connectable=0;fillColor=none;top=0;left=0;bottom=0;right=0;align=left;spacingLeft=6;fontStyle=0;overflow=hidden;" vertex="1" parent="C3HohyDAmdTFKAN3VmWp-391">
          <mxGeometry x="30" width="200" height="30" as="geometry" />
        </mxCell>
        <mxCell id="C3HohyDAmdTFKAN3VmWp-353" value="" style="shape=partialRectangle;collapsible=0;dropTarget=0;pointerEvents=0;fillColor=none;top=0;left=0;bottom=0;right=0;points=[[0,0.5],[1,0.5]];portConstraint=eastwest;" vertex="1" parent="C3HohyDAmdTFKAN3VmWp-349">
          <mxGeometry y="90" width="230" height="30" as="geometry" />
        </mxCell>
        <mxCell id="C3HohyDAmdTFKAN3VmWp-354" value="" style="shape=partialRectangle;connectable=0;fillColor=none;top=0;left=0;bottom=0;right=0;editable=1;overflow=hidden;" vertex="1" parent="C3HohyDAmdTFKAN3VmWp-353">
          <mxGeometry width="30" height="30" as="geometry" />
        </mxCell>
        <mxCell id="C3HohyDAmdTFKAN3VmWp-355" value="denominacion string" style="shape=partialRectangle;connectable=0;fillColor=none;top=0;left=0;bottom=0;right=0;align=left;spacingLeft=6;overflow=hidden;" vertex="1" parent="C3HohyDAmdTFKAN3VmWp-353">
          <mxGeometry x="30" width="200" height="30" as="geometry" />
        </mxCell>
        <mxCell id="C3HohyDAmdTFKAN3VmWp-356" value="" style="shape=partialRectangle;collapsible=0;dropTarget=0;pointerEvents=0;fillColor=none;top=0;left=0;bottom=0;right=0;points=[[0,0.5],[1,0.5]];portConstraint=eastwest;" vertex="1" parent="C3HohyDAmdTFKAN3VmWp-349">
          <mxGeometry y="120" width="230" height="30" as="geometry" />
        </mxCell>
        <mxCell id="C3HohyDAmdTFKAN3VmWp-357" value="" style="shape=partialRectangle;connectable=0;fillColor=none;top=0;left=0;bottom=0;right=0;editable=1;overflow=hidden;" vertex="1" parent="C3HohyDAmdTFKAN3VmWp-356">
          <mxGeometry width="30" height="30" as="geometry" />
        </mxCell>
        <mxCell id="C3HohyDAmdTFKAN3VmWp-358" value="precio_compra long" style="shape=partialRectangle;connectable=0;fillColor=none;top=0;left=0;bottom=0;right=0;align=left;spacingLeft=6;overflow=hidden;" vertex="1" parent="C3HohyDAmdTFKAN3VmWp-356">
          <mxGeometry x="30" width="200" height="30" as="geometry" />
        </mxCell>
        <mxCell id="C3HohyDAmdTFKAN3VmWp-359" value="" style="shape=partialRectangle;collapsible=0;dropTarget=0;pointerEvents=0;fillColor=none;top=0;left=0;bottom=0;right=0;points=[[0,0.5],[1,0.5]];portConstraint=eastwest;" vertex="1" parent="C3HohyDAmdTFKAN3VmWp-349">
          <mxGeometry y="150" width="230" height="30" as="geometry" />
        </mxCell>
        <mxCell id="C3HohyDAmdTFKAN3VmWp-360" value="" style="shape=partialRectangle;connectable=0;fillColor=none;top=0;left=0;bottom=0;right=0;editable=1;overflow=hidden;" vertex="1" parent="C3HohyDAmdTFKAN3VmWp-359">
          <mxGeometry width="30" height="30" as="geometry" />
        </mxCell>
        <mxCell id="C3HohyDAmdTFKAN3VmWp-361" value="precio_venta long" style="shape=partialRectangle;connectable=0;fillColor=none;top=0;left=0;bottom=0;right=0;align=left;spacingLeft=6;overflow=hidden;" vertex="1" parent="C3HohyDAmdTFKAN3VmWp-359">
          <mxGeometry x="30" width="200" height="30" as="geometry" />
        </mxCell>
        <mxCell id="C3HohyDAmdTFKAN3VmWp-375" value="" style="shape=partialRectangle;collapsible=0;dropTarget=0;pointerEvents=0;fillColor=none;top=0;left=0;bottom=0;right=0;points=[[0,0.5],[1,0.5]];portConstraint=eastwest;" vertex="1" parent="C3HohyDAmdTFKAN3VmWp-349">
          <mxGeometry y="180" width="230" height="30" as="geometry" />
        </mxCell>
        <mxCell id="C3HohyDAmdTFKAN3VmWp-376" value="" style="shape=partialRectangle;connectable=0;fillColor=none;top=0;left=0;bottom=0;right=0;editable=1;overflow=hidden;" vertex="1" parent="C3HohyDAmdTFKAN3VmWp-375">
          <mxGeometry width="30" height="30" as="geometry" />
        </mxCell>
        <mxCell id="C3HohyDAmdTFKAN3VmWp-377" value="stock_actual int" style="shape=partialRectangle;connectable=0;fillColor=none;top=0;left=0;bottom=0;right=0;align=left;spacingLeft=6;overflow=hidden;" vertex="1" parent="C3HohyDAmdTFKAN3VmWp-375">
          <mxGeometry x="30" width="200" height="30" as="geometry" />
        </mxCell>
        <mxCell id="C3HohyDAmdTFKAN3VmWp-378" value="" style="shape=partialRectangle;collapsible=0;dropTarget=0;pointerEvents=0;fillColor=none;top=0;left=0;bottom=0;right=0;points=[[0,0.5],[1,0.5]];portConstraint=eastwest;" vertex="1" parent="C3HohyDAmdTFKAN3VmWp-349">
          <mxGeometry y="210" width="230" height="30" as="geometry" />
        </mxCell>
        <mxCell id="C3HohyDAmdTFKAN3VmWp-379" value="" style="shape=partialRectangle;connectable=0;fillColor=none;top=0;left=0;bottom=0;right=0;editable=1;overflow=hidden;" vertex="1" parent="C3HohyDAmdTFKAN3VmWp-378">
          <mxGeometry width="30" height="30" as="geometry" />
        </mxCell>
        <mxCell id="C3HohyDAmdTFKAN3VmWp-380" value="stock_minimo int" style="shape=partialRectangle;connectable=0;fillColor=none;top=0;left=0;bottom=0;right=0;align=left;spacingLeft=6;overflow=hidden;" vertex="1" parent="C3HohyDAmdTFKAN3VmWp-378">
          <mxGeometry x="30" width="200" height="30" as="geometry" />
        </mxCell>
        <mxCell id="C3HohyDAmdTFKAN3VmWp-381" value="" style="shape=partialRectangle;collapsible=0;dropTarget=0;pointerEvents=0;fillColor=none;top=0;left=0;bottom=0;right=0;points=[[0,0.5],[1,0.5]];portConstraint=eastwest;" vertex="1" parent="C3HohyDAmdTFKAN3VmWp-349">
          <mxGeometry y="240" width="230" height="30" as="geometry" />
        </mxCell>
        <mxCell id="C3HohyDAmdTFKAN3VmWp-382" value="" style="shape=partialRectangle;connectable=0;fillColor=none;top=0;left=0;bottom=0;right=0;editable=1;overflow=hidden;" vertex="1" parent="C3HohyDAmdTFKAN3VmWp-381">
          <mxGeometry width="30" height="30" as="geometry" />
        </mxCell>
        <mxCell id="C3HohyDAmdTFKAN3VmWp-383" value="stock_minimo int" style="shape=partialRectangle;connectable=0;fillColor=none;top=0;left=0;bottom=0;right=0;align=left;spacingLeft=6;overflow=hidden;" vertex="1" parent="C3HohyDAmdTFKAN3VmWp-381">
          <mxGeometry x="30" width="200" height="30" as="geometry" />
        </mxCell>
        <mxCell id="C3HohyDAmdTFKAN3VmWp-384" value="" style="shape=partialRectangle;collapsible=0;dropTarget=0;pointerEvents=0;fillColor=none;top=0;left=0;bottom=0;right=0;points=[[0,0.5],[1,0.5]];portConstraint=eastwest;" vertex="1" parent="C3HohyDAmdTFKAN3VmWp-349">
          <mxGeometry y="270" width="230" height="30" as="geometry" />
        </mxCell>
        <mxCell id="C3HohyDAmdTFKAN3VmWp-385" value="" style="shape=partialRectangle;connectable=0;fillColor=none;top=0;left=0;bottom=0;right=0;editable=1;overflow=hidden;" vertex="1" parent="C3HohyDAmdTFKAN3VmWp-384">
          <mxGeometry width="30" height="30" as="geometry" />
        </mxCell>
        <mxCell id="C3HohyDAmdTFKAN3VmWp-386" value="unidad_medida int" style="shape=partialRectangle;connectable=0;fillColor=none;top=0;left=0;bottom=0;right=0;align=left;spacingLeft=6;overflow=hidden;" vertex="1" parent="C3HohyDAmdTFKAN3VmWp-384">
          <mxGeometry x="30" width="200" height="30" as="geometry" />
        </mxCell>
        <mxCell id="C3HohyDAmdTFKAN3VmWp-387" value="" style="shape=partialRectangle;collapsible=0;dropTarget=0;pointerEvents=0;fillColor=none;top=0;left=0;bottom=0;right=0;points=[[0,0.5],[1,0.5]];portConstraint=eastwest;" vertex="1" parent="C3HohyDAmdTFKAN3VmWp-349">
          <mxGeometry y="300" width="230" height="30" as="geometry" />
        </mxCell>
        <mxCell id="C3HohyDAmdTFKAN3VmWp-388" value="" style="shape=partialRectangle;connectable=0;fillColor=none;top=0;left=0;bottom=0;right=0;editable=1;overflow=hidden;" vertex="1" parent="C3HohyDAmdTFKAN3VmWp-387">
          <mxGeometry width="30" height="30" as="geometry" />
        </mxCell>
        <mxCell id="C3HohyDAmdTFKAN3VmWp-389" value="es_insumo boolean" style="shape=partialRectangle;connectable=0;fillColor=none;top=0;left=0;bottom=0;right=0;align=left;spacingLeft=6;overflow=hidden;" vertex="1" parent="C3HohyDAmdTFKAN3VmWp-387">
          <mxGeometry x="30" width="200" height="30" as="geometry" />
        </mxCell>
        <mxCell id="C3HohyDAmdTFKAN3VmWp-394" value="ArticuloManofacturadoDetalle" style="shape=table;startSize=30;container=1;collapsible=1;childLayout=tableLayout;fixedRows=1;rowLines=0;fontStyle=1;align=center;resizeLast=1;" vertex="1" parent="1">
          <mxGeometry x="950" y="400" width="270" height="180" as="geometry">
            <mxRectangle x="560" y="130" width="120" height="30" as="alternateBounds" />
          </mxGeometry>
        </mxCell>
        <mxCell id="C3HohyDAmdTFKAN3VmWp-395" value="" style="shape=partialRectangle;collapsible=0;dropTarget=0;pointerEvents=0;fillColor=none;top=0;left=0;bottom=1;right=0;points=[[0,0.5],[1,0.5]];portConstraint=eastwest;" vertex="1" parent="C3HohyDAmdTFKAN3VmWp-394">
          <mxGeometry y="30" width="270" height="30" as="geometry" />
        </mxCell>
        <mxCell id="C3HohyDAmdTFKAN3VmWp-396" value="PK" style="shape=partialRectangle;connectable=0;fillColor=none;top=0;left=0;bottom=0;right=0;fontStyle=1;overflow=hidden;" vertex="1" parent="C3HohyDAmdTFKAN3VmWp-395">
          <mxGeometry width="30" height="30" as="geometry" />
        </mxCell>
        <mxCell id="C3HohyDAmdTFKAN3VmWp-397" value="id_articulo_manu_detalle int NOT NULL" style="shape=partialRectangle;connectable=0;fillColor=none;top=0;left=0;bottom=0;right=0;align=left;spacingLeft=6;fontStyle=5;overflow=hidden;" vertex="1" parent="C3HohyDAmdTFKAN3VmWp-395">
          <mxGeometry x="30" width="240" height="30" as="geometry" />
        </mxCell>
        <mxCell id="C3HohyDAmdTFKAN3VmWp-398" value="" style="shape=partialRectangle;collapsible=0;dropTarget=0;pointerEvents=0;fillColor=none;top=0;left=0;bottom=0;right=0;points=[[0,0.5],[1,0.5]];portConstraint=eastwest;" vertex="1" parent="C3HohyDAmdTFKAN3VmWp-394">
          <mxGeometry y="60" width="270" height="30" as="geometry" />
        </mxCell>
        <mxCell id="C3HohyDAmdTFKAN3VmWp-399" value="FK" style="shape=partialRectangle;connectable=0;fillColor=none;top=0;left=0;bottom=0;right=0;fontStyle=0;overflow=hidden;" vertex="1" parent="C3HohyDAmdTFKAN3VmWp-398">
          <mxGeometry width="30" height="30" as="geometry" />
        </mxCell>
        <mxCell id="C3HohyDAmdTFKAN3VmWp-400" value="id_articulo_insumo int NOT NULL" style="shape=partialRectangle;connectable=0;fillColor=none;top=0;left=0;bottom=0;right=0;align=left;spacingLeft=6;fontStyle=0;overflow=hidden;" vertex="1" parent="C3HohyDAmdTFKAN3VmWp-398">
          <mxGeometry x="30" width="240" height="30" as="geometry" />
        </mxCell>
        <mxCell id="C3HohyDAmdTFKAN3VmWp-404" value="" style="shape=partialRectangle;collapsible=0;dropTarget=0;pointerEvents=0;fillColor=none;top=0;left=0;bottom=0;right=0;points=[[0,0.5],[1,0.5]];portConstraint=eastwest;" vertex="1" parent="C3HohyDAmdTFKAN3VmWp-394">
          <mxGeometry y="90" width="270" height="30" as="geometry" />
        </mxCell>
        <mxCell id="C3HohyDAmdTFKAN3VmWp-405" value="FK" style="shape=partialRectangle;connectable=0;fillColor=none;top=0;left=0;bottom=0;right=0;fontStyle=0;overflow=hidden;" vertex="1" parent="C3HohyDAmdTFKAN3VmWp-404">
          <mxGeometry width="30" height="30" as="geometry" />
        </mxCell>
        <mxCell id="C3HohyDAmdTFKAN3VmWp-406" value="id_articulo_manu int NOT NULL" style="shape=partialRectangle;connectable=0;fillColor=none;top=0;left=0;bottom=0;right=0;align=left;spacingLeft=6;fontStyle=0;overflow=hidden;" vertex="1" parent="C3HohyDAmdTFKAN3VmWp-404">
          <mxGeometry x="30" width="240" height="30" as="geometry" />
        </mxCell>
        <mxCell id="C3HohyDAmdTFKAN3VmWp-401" value="" style="shape=partialRectangle;collapsible=0;dropTarget=0;pointerEvents=0;fillColor=none;top=0;left=0;bottom=0;right=0;points=[[0,0.5],[1,0.5]];portConstraint=eastwest;" vertex="1" parent="C3HohyDAmdTFKAN3VmWp-394">
          <mxGeometry y="120" width="270" height="30" as="geometry" />
        </mxCell>
        <mxCell id="C3HohyDAmdTFKAN3VmWp-402" value="" style="shape=partialRectangle;connectable=0;fillColor=none;top=0;left=0;bottom=0;right=0;editable=1;overflow=hidden;" vertex="1" parent="C3HohyDAmdTFKAN3VmWp-401">
          <mxGeometry width="30" height="30" as="geometry" />
        </mxCell>
        <mxCell id="C3HohyDAmdTFKAN3VmWp-403" value="cantidad int" style="shape=partialRectangle;connectable=0;fillColor=none;top=0;left=0;bottom=0;right=0;align=left;spacingLeft=6;overflow=hidden;" vertex="1" parent="C3HohyDAmdTFKAN3VmWp-401">
          <mxGeometry x="30" width="240" height="30" as="geometry" />
        </mxCell>
        <mxCell id="C3HohyDAmdTFKAN3VmWp-409" value="" style="shape=partialRectangle;collapsible=0;dropTarget=0;pointerEvents=0;fillColor=none;top=0;left=0;bottom=0;right=0;points=[[0,0.5],[1,0.5]];portConstraint=eastwest;" vertex="1" parent="C3HohyDAmdTFKAN3VmWp-394">
          <mxGeometry y="150" width="270" height="30" as="geometry" />
        </mxCell>
        <mxCell id="C3HohyDAmdTFKAN3VmWp-410" value="" style="shape=partialRectangle;connectable=0;fillColor=none;top=0;left=0;bottom=0;right=0;editable=1;overflow=hidden;" vertex="1" parent="C3HohyDAmdTFKAN3VmWp-409">
          <mxGeometry width="30" height="30" as="geometry" />
        </mxCell>
        <mxCell id="C3HohyDAmdTFKAN3VmWp-411" value="unidad_medida string " style="shape=partialRectangle;connectable=0;fillColor=none;top=0;left=0;bottom=0;right=0;align=left;spacingLeft=6;overflow=hidden;" vertex="1" parent="C3HohyDAmdTFKAN3VmWp-409">
          <mxGeometry x="30" width="240" height="30" as="geometry" />
        </mxCell>
        <mxCell id="C3HohyDAmdTFKAN3VmWp-425" value="" style="edgeStyle=entityRelationEdgeStyle;fontSize=12;html=1;endArrow=ERmandOne;" edge="1" parent="1" source="C3HohyDAmdTFKAN3VmWp-206" target="C3HohyDAmdTFKAN3VmWp-432">
          <mxGeometry width="100" height="100" relative="1" as="geometry">
            <mxPoint x="1550" y="80" as="sourcePoint" />
            <mxPoint x="1114.9999999999998" y="5" as="targetPoint" />
          </mxGeometry>
        </mxCell>
        <mxCell id="C3HohyDAmdTFKAN3VmWp-439" value="" style="edgeStyle=entityRelationEdgeStyle;fontSize=12;html=1;endArrow=ERoneToMany;" edge="1" parent="1" source="C-vyLk0tnHw3VtMMgP7b-3" target="C3HohyDAmdTFKAN3VmWp-436">
          <mxGeometry width="100" height="100" relative="1" as="geometry">
            <mxPoint x="1300" y="-210" as="sourcePoint" />
            <mxPoint x="1170" y="140" as="targetPoint" />
          </mxGeometry>
        </mxCell>
        <mxCell id="C3HohyDAmdTFKAN3VmWp-445" value="" style="edgeStyle=entityRelationEdgeStyle;fontSize=12;html=1;endArrow=ERoneToMany;exitX=1;exitY=0.822;exitDx=0;exitDy=0;exitPerimeter=0;" edge="1" parent="1" source="C3HohyDAmdTFKAN3VmWp-193" target="C3HohyDAmdTFKAN3VmWp-186">
          <mxGeometry width="100" height="100" relative="1" as="geometry">
            <mxPoint x="720" y="350" as="sourcePoint" />
            <mxPoint x="820" y="250" as="targetPoint" />
          </mxGeometry>
        </mxCell>
        <mxCell id="C3HohyDAmdTFKAN3VmWp-446" value="" style="edgeStyle=entityRelationEdgeStyle;fontSize=12;html=1;endArrow=ERoneToMany;exitX=0.999;exitY=0.189;exitDx=0;exitDy=0;exitPerimeter=0;" edge="1" parent="1" source="C3HohyDAmdTFKAN3VmWp-350" target="C3HohyDAmdTFKAN3VmWp-189">
          <mxGeometry width="100" height="100" relative="1" as="geometry">
            <mxPoint x="740" y="360" as="sourcePoint" />
            <mxPoint x="840" y="260" as="targetPoint" />
          </mxGeometry>
        </mxCell>
        <mxCell id="C3HohyDAmdTFKAN3VmWp-449" value="" style="edgeStyle=entityRelationEdgeStyle;fontSize=12;html=1;endArrow=ERoneToMany;startArrow=ERmandOne;exitX=0.997;exitY=0.933;exitDx=0;exitDy=0;exitPerimeter=0;" edge="1" parent="1" source="C3HohyDAmdTFKAN3VmWp-350" target="C3HohyDAmdTFKAN3VmWp-398">
          <mxGeometry width="100" height="100" relative="1" as="geometry">
            <mxPoint x="810" y="520" as="sourcePoint" />
            <mxPoint x="910" y="420" as="targetPoint" />
          </mxGeometry>
        </mxCell>
        <mxCell id="C3HohyDAmdTFKAN3VmWp-450" value="" style="edgeStyle=entityRelationEdgeStyle;fontSize=12;html=1;endArrow=ERoneToMany;" edge="1" parent="1" source="C3HohyDAmdTFKAN3VmWp-193" target="C3HohyDAmdTFKAN3VmWp-404">
          <mxGeometry width="100" height="100" relative="1" as="geometry">
            <mxPoint x="810" y="570" as="sourcePoint" />
            <mxPoint x="910" y="470" as="targetPoint" />
          </mxGeometry>
        </mxCell>
        <mxCell id="C3HohyDAmdTFKAN3VmWp-453" value="" style="edgeStyle=entityRelationEdgeStyle;fontSize=12;html=1;endArrow=ERoneToMany;" edge="1" parent="1" source="C3HohyDAmdTFKAN3VmWp-332" target="C3HohyDAmdTFKAN3VmWp-391">
          <mxGeometry width="100" height="100" relative="1" as="geometry">
            <mxPoint x="1070" y="700" as="sourcePoint" />
            <mxPoint x="1220" y="690" as="targetPoint" />
          </mxGeometry>
        </mxCell>
        <mxCell id="C3HohyDAmdTFKAN3VmWp-465" value="" style="edgeStyle=entityRelationEdgeStyle;fontSize=12;html=1;endArrow=ERoneToMany;exitX=1;exitY=0.911;exitDx=0;exitDy=0;exitPerimeter=0;" edge="1" parent="1" source="C-vyLk0tnHw3VtMMgP7b-24" target="C3HohyDAmdTFKAN3VmWp-135">
          <mxGeometry width="100" height="100" relative="1" as="geometry">
            <mxPoint x="401" y="-6" as="sourcePoint" />
            <mxPoint x="110" y="80" as="targetPoint" />
          </mxGeometry>
        </mxCell>
        <mxCell id="C3HohyDAmdTFKAN3VmWp-466" value="" style="edgeStyle=entityRelationEdgeStyle;fontSize=12;html=1;endArrow=ERoneToMany;" edge="1" parent="1" source="C3HohyDAmdTFKAN3VmWp-193" target="C3HohyDAmdTFKAN3VmWp-179">
          <mxGeometry width="100" height="100" relative="1" as="geometry">
            <mxPoint x="350" y="410" as="sourcePoint" />
            <mxPoint x="450" y="310" as="targetPoint" />
          </mxGeometry>
        </mxCell>
        <mxCell id="C3HohyDAmdTFKAN3VmWp-467" value="" style="edgeStyle=entityRelationEdgeStyle;fontSize=12;html=1;endArrow=ERoneToMany;" edge="1" parent="1" source="C3HohyDAmdTFKAN3VmWp-182" target="C3HohyDAmdTFKAN3VmWp-350">
          <mxGeometry width="100" height="100" relative="1" as="geometry">
            <mxPoint x="390" y="500" as="sourcePoint" />
            <mxPoint x="490" y="400" as="targetPoint" />
          </mxGeometry>
        </mxCell>
        <mxCell id="C3HohyDAmdTFKAN3VmWp-468" value="MercadoPagoDatos" style="shape=table;startSize=30;container=1;collapsible=1;childLayout=tableLayout;fixedRows=1;rowLines=0;fontStyle=1;align=center;resizeLast=1;" vertex="1" parent="1">
          <mxGeometry x="930" y="-540" width="215" height="240" as="geometry" />
        </mxCell>
        <mxCell id="C3HohyDAmdTFKAN3VmWp-469" value="" style="shape=partialRectangle;collapsible=0;dropTarget=0;pointerEvents=0;fillColor=none;top=0;left=0;bottom=1;right=0;points=[[0,0.5],[1,0.5]];portConstraint=eastwest;" vertex="1" parent="C3HohyDAmdTFKAN3VmWp-468">
          <mxGeometry y="30" width="215" height="30" as="geometry" />
        </mxCell>
        <mxCell id="C3HohyDAmdTFKAN3VmWp-470" value="PK" style="shape=partialRectangle;connectable=0;fillColor=none;top=0;left=0;bottom=0;right=0;fontStyle=1;overflow=hidden;" vertex="1" parent="C3HohyDAmdTFKAN3VmWp-469">
          <mxGeometry width="30" height="30" as="geometry" />
        </mxCell>
        <mxCell id="C3HohyDAmdTFKAN3VmWp-471" value="id_mpago int NOT NULL" style="shape=partialRectangle;connectable=0;fillColor=none;top=0;left=0;bottom=0;right=0;align=left;spacingLeft=6;fontStyle=5;overflow=hidden;" vertex="1" parent="C3HohyDAmdTFKAN3VmWp-469">
          <mxGeometry x="30" width="185" height="30" as="geometry" />
        </mxCell>
        <mxCell id="C3HohyDAmdTFKAN3VmWp-475" value="" style="shape=partialRectangle;collapsible=0;dropTarget=0;pointerEvents=0;fillColor=none;top=0;left=0;bottom=0;right=0;points=[[0,0.5],[1,0.5]];portConstraint=eastwest;" vertex="1" parent="C3HohyDAmdTFKAN3VmWp-468">
          <mxGeometry y="60" width="215" height="30" as="geometry" />
        </mxCell>
        <mxCell id="C3HohyDAmdTFKAN3VmWp-476" value="" style="shape=partialRectangle;connectable=0;fillColor=none;top=0;left=0;bottom=0;right=0;editable=1;overflow=hidden;" vertex="1" parent="C3HohyDAmdTFKAN3VmWp-475">
          <mxGeometry width="30" height="30" as="geometry" />
        </mxCell>
        <mxCell id="C3HohyDAmdTFKAN3VmWp-477" value="fecha_creacion date NOT NULL" style="shape=partialRectangle;connectable=0;fillColor=none;top=0;left=0;bottom=0;right=0;align=left;spacingLeft=6;overflow=hidden;" vertex="1" parent="C3HohyDAmdTFKAN3VmWp-475">
          <mxGeometry x="30" width="185" height="30" as="geometry" />
        </mxCell>
        <mxCell id="C3HohyDAmdTFKAN3VmWp-478" value="" style="shape=partialRectangle;collapsible=0;dropTarget=0;pointerEvents=0;fillColor=none;top=0;left=0;bottom=0;right=0;points=[[0,0.5],[1,0.5]];portConstraint=eastwest;" vertex="1" parent="C3HohyDAmdTFKAN3VmWp-468">
          <mxGeometry y="90" width="215" height="30" as="geometry" />
        </mxCell>
        <mxCell id="C3HohyDAmdTFKAN3VmWp-479" value="" style="shape=partialRectangle;connectable=0;fillColor=none;top=0;left=0;bottom=0;right=0;editable=1;overflow=hidden;" vertex="1" parent="C3HohyDAmdTFKAN3VmWp-478">
          <mxGeometry width="30" height="30" as="geometry" />
        </mxCell>
        <mxCell id="C3HohyDAmdTFKAN3VmWp-480" value="fecha_aprob date" style="shape=partialRectangle;connectable=0;fillColor=none;top=0;left=0;bottom=0;right=0;align=left;spacingLeft=6;overflow=hidden;" vertex="1" parent="C3HohyDAmdTFKAN3VmWp-478">
          <mxGeometry x="30" width="185" height="30" as="geometry" />
        </mxCell>
        <mxCell id="C3HohyDAmdTFKAN3VmWp-481" value="" style="shape=partialRectangle;collapsible=0;dropTarget=0;pointerEvents=0;fillColor=none;top=0;left=0;bottom=0;right=0;points=[[0,0.5],[1,0.5]];portConstraint=eastwest;" vertex="1" parent="C3HohyDAmdTFKAN3VmWp-468">
          <mxGeometry y="120" width="215" height="30" as="geometry" />
        </mxCell>
        <mxCell id="C3HohyDAmdTFKAN3VmWp-482" value="" style="shape=partialRectangle;connectable=0;fillColor=none;top=0;left=0;bottom=0;right=0;editable=1;overflow=hidden;" vertex="1" parent="C3HohyDAmdTFKAN3VmWp-481">
          <mxGeometry width="30" height="30" as="geometry" />
        </mxCell>
        <mxCell id="C3HohyDAmdTFKAN3VmWp-483" value="forma_pago string" style="shape=partialRectangle;connectable=0;fillColor=none;top=0;left=0;bottom=0;right=0;align=left;spacingLeft=6;overflow=hidden;" vertex="1" parent="C3HohyDAmdTFKAN3VmWp-481">
          <mxGeometry x="30" width="185" height="30" as="geometry" />
        </mxCell>
        <mxCell id="C3HohyDAmdTFKAN3VmWp-484" value="" style="shape=partialRectangle;collapsible=0;dropTarget=0;pointerEvents=0;fillColor=none;top=0;left=0;bottom=0;right=0;points=[[0,0.5],[1,0.5]];portConstraint=eastwest;" vertex="1" parent="C3HohyDAmdTFKAN3VmWp-468">
          <mxGeometry y="150" width="215" height="30" as="geometry" />
        </mxCell>
        <mxCell id="C3HohyDAmdTFKAN3VmWp-485" value="" style="shape=partialRectangle;connectable=0;fillColor=none;top=0;left=0;bottom=0;right=0;editable=1;overflow=hidden;" vertex="1" parent="C3HohyDAmdTFKAN3VmWp-484">
          <mxGeometry width="30" height="30" as="geometry" />
        </mxCell>
        <mxCell id="C3HohyDAmdTFKAN3VmWp-486" value="metodo_pago string" style="shape=partialRectangle;connectable=0;fillColor=none;top=0;left=0;bottom=0;right=0;align=left;spacingLeft=6;overflow=hidden;" vertex="1" parent="C3HohyDAmdTFKAN3VmWp-484">
          <mxGeometry x="30" width="185" height="30" as="geometry" />
        </mxCell>
        <mxCell id="C3HohyDAmdTFKAN3VmWp-487" value="" style="shape=partialRectangle;collapsible=0;dropTarget=0;pointerEvents=0;fillColor=none;top=0;left=0;bottom=0;right=0;points=[[0,0.5],[1,0.5]];portConstraint=eastwest;" vertex="1" parent="C3HohyDAmdTFKAN3VmWp-468">
          <mxGeometry y="180" width="215" height="30" as="geometry" />
        </mxCell>
        <mxCell id="C3HohyDAmdTFKAN3VmWp-488" value="" style="shape=partialRectangle;connectable=0;fillColor=none;top=0;left=0;bottom=0;right=0;editable=1;overflow=hidden;" vertex="1" parent="C3HohyDAmdTFKAN3VmWp-487">
          <mxGeometry width="30" height="30" as="geometry" />
        </mxCell>
        <mxCell id="C3HohyDAmdTFKAN3VmWp-489" value="nro_tarjeta string" style="shape=partialRectangle;connectable=0;fillColor=none;top=0;left=0;bottom=0;right=0;align=left;spacingLeft=6;overflow=hidden;" vertex="1" parent="C3HohyDAmdTFKAN3VmWp-487">
          <mxGeometry x="30" width="185" height="30" as="geometry" />
        </mxCell>
        <mxCell id="C3HohyDAmdTFKAN3VmWp-490" value="" style="shape=partialRectangle;collapsible=0;dropTarget=0;pointerEvents=0;fillColor=none;top=0;left=0;bottom=0;right=0;points=[[0,0.5],[1,0.5]];portConstraint=eastwest;" vertex="1" parent="C3HohyDAmdTFKAN3VmWp-468">
          <mxGeometry y="210" width="215" height="30" as="geometry" />
        </mxCell>
        <mxCell id="C3HohyDAmdTFKAN3VmWp-491" value="" style="shape=partialRectangle;connectable=0;fillColor=none;top=0;left=0;bottom=0;right=0;editable=1;overflow=hidden;" vertex="1" parent="C3HohyDAmdTFKAN3VmWp-490">
          <mxGeometry width="30" height="30" as="geometry" />
        </mxCell>
        <mxCell id="C3HohyDAmdTFKAN3VmWp-492" value="estado string" style="shape=partialRectangle;connectable=0;fillColor=none;top=0;left=0;bottom=0;right=0;align=left;spacingLeft=6;overflow=hidden;" vertex="1" parent="C3HohyDAmdTFKAN3VmWp-490">
          <mxGeometry x="30" width="185" height="30" as="geometry" />
        </mxCell>
        <mxCell id="C3HohyDAmdTFKAN3VmWp-493" value="" style="edgeStyle=entityRelationEdgeStyle;fontSize=12;html=1;endArrow=ERmandOne;startArrow=ERmandOne;" edge="1" parent="1" source="C3HohyDAmdTFKAN3VmWp-56" target="C3HohyDAmdTFKAN3VmWp-469">
          <mxGeometry width="100" height="100" relative="1" as="geometry">
            <mxPoint x="710" y="-190" as="sourcePoint" />
            <mxPoint x="810" y="-290" as="targetPoint" />
          </mxGeometry>
        </mxCell>
        <mxCell id="C3HohyDAmdTFKAN3VmWp-498" value="" style="edgeStyle=entityRelationEdgeStyle;fontSize=12;html=1;endArrow=ERmandOne;startArrow=ERmandOne;" edge="1" parent="1" source="C3HohyDAmdTFKAN3VmWp-292" target="C3HohyDAmdTFKAN3VmWp-495">
          <mxGeometry width="100" height="100" relative="1" as="geometry">
            <mxPoint x="500" y="-270" as="sourcePoint" />
            <mxPoint x="600" y="-370" as="targetPoint" />
          </mxGeometry>
        </mxCell>
        <mxCell id="C3HohyDAmdTFKAN3VmWp-501" value="RubroGeneral" style="shape=table;startSize=30;container=1;collapsible=1;childLayout=tableLayout;fixedRows=1;rowLines=0;fontStyle=1;align=center;resizeLast=1;" vertex="1" parent="1">
          <mxGeometry x="512.5" y="-60" width="225" height="90" as="geometry" />
        </mxCell>
        <mxCell id="C3HohyDAmdTFKAN3VmWp-502" value="" style="shape=partialRectangle;collapsible=0;dropTarget=0;pointerEvents=0;fillColor=none;top=0;left=0;bottom=1;right=0;points=[[0,0.5],[1,0.5]];portConstraint=eastwest;" vertex="1" parent="C3HohyDAmdTFKAN3VmWp-501">
          <mxGeometry y="30" width="225" height="30" as="geometry" />
        </mxCell>
        <mxCell id="C3HohyDAmdTFKAN3VmWp-503" value="PK" style="shape=partialRectangle;connectable=0;fillColor=none;top=0;left=0;bottom=0;right=0;fontStyle=1;overflow=hidden;" vertex="1" parent="C3HohyDAmdTFKAN3VmWp-502">
          <mxGeometry width="30" height="30" as="geometry" />
        </mxCell>
        <mxCell id="C3HohyDAmdTFKAN3VmWp-504" value="id_rubro_general int NOT NULL" style="shape=partialRectangle;connectable=0;fillColor=none;top=0;left=0;bottom=0;right=0;align=left;spacingLeft=6;fontStyle=5;overflow=hidden;" vertex="1" parent="C3HohyDAmdTFKAN3VmWp-502">
          <mxGeometry x="30" width="195" height="30" as="geometry" />
        </mxCell>
        <mxCell id="C3HohyDAmdTFKAN3VmWp-505" value="" style="shape=partialRectangle;collapsible=0;dropTarget=0;pointerEvents=0;fillColor=none;top=0;left=0;bottom=0;right=0;points=[[0,0.5],[1,0.5]];portConstraint=eastwest;" vertex="1" parent="C3HohyDAmdTFKAN3VmWp-501">
          <mxGeometry y="60" width="225" height="30" as="geometry" />
        </mxCell>
        <mxCell id="C3HohyDAmdTFKAN3VmWp-506" value="" style="shape=partialRectangle;connectable=0;fillColor=none;top=0;left=0;bottom=0;right=0;editable=1;overflow=hidden;" vertex="1" parent="C3HohyDAmdTFKAN3VmWp-505">
          <mxGeometry width="30" height="30" as="geometry" />
        </mxCell>
        <mxCell id="C3HohyDAmdTFKAN3VmWp-507" value="denominacion string NOT NULL" style="shape=partialRectangle;connectable=0;fillColor=none;top=0;left=0;bottom=0;right=0;align=left;spacingLeft=6;overflow=hidden;" vertex="1" parent="C3HohyDAmdTFKAN3VmWp-505">
          <mxGeometry x="30" width="195" height="30" as="geometry" />
        </mxCell>
        <mxCell id="C3HohyDAmdTFKAN3VmWp-514" value="" style="edgeStyle=entityRelationEdgeStyle;fontSize=12;html=1;endArrow=ERoneToMany;" edge="1" parent="1" source="C3HohyDAmdTFKAN3VmWp-502" target="C3HohyDAmdTFKAN3VmWp-419">
          <mxGeometry width="100" height="100" relative="1" as="geometry">
            <mxPoint x="750" y="30" as="sourcePoint" />
            <mxPoint x="510" y="145" as="targetPoint" />
          </mxGeometry>
        </mxCell>
        <mxCell id="C3HohyDAmdTFKAN3VmWp-515" value="Configuracion" style="shape=table;startSize=30;container=1;collapsible=1;childLayout=tableLayout;fixedRows=1;rowLines=0;fontStyle=1;align=center;resizeLast=1;" vertex="1" parent="1">
          <mxGeometry x="670" y="-615" width="230" height="125" as="geometry" />
        </mxCell>
        <mxCell id="C3HohyDAmdTFKAN3VmWp-519" value="" style="shape=partialRectangle;collapsible=0;dropTarget=0;pointerEvents=0;fillColor=none;top=0;left=0;bottom=0;right=0;points=[[0,0.5],[1,0.5]];portConstraint=eastwest;" vertex="1" parent="C3HohyDAmdTFKAN3VmWp-515">
          <mxGeometry y="30" width="230" height="30" as="geometry" />
        </mxCell>
        <mxCell id="C3HohyDAmdTFKAN3VmWp-520" value="" style="shape=partialRectangle;connectable=0;fillColor=none;top=0;left=0;bottom=0;right=0;editable=1;overflow=hidden;" vertex="1" parent="C3HohyDAmdTFKAN3VmWp-519">
          <mxGeometry width="30" height="30" as="geometry" />
        </mxCell>
        <mxCell id="C3HohyDAmdTFKAN3VmWp-521" value="cantidad_cocineros int NOT NULL" style="shape=partialRectangle;connectable=0;fillColor=none;top=0;left=0;bottom=0;right=0;align=left;spacingLeft=6;overflow=hidden;" vertex="1" parent="C3HohyDAmdTFKAN3VmWp-519">
          <mxGeometry x="30" width="200" height="30" as="geometry" />
        </mxCell>
        <mxCell id="C3HohyDAmdTFKAN3VmWp-522" value="" style="shape=partialRectangle;collapsible=0;dropTarget=0;pointerEvents=0;fillColor=none;top=0;left=0;bottom=0;right=0;points=[[0,0.5],[1,0.5]];portConstraint=eastwest;" vertex="1" parent="C3HohyDAmdTFKAN3VmWp-515">
          <mxGeometry y="60" width="230" height="30" as="geometry" />
        </mxCell>
        <mxCell id="C3HohyDAmdTFKAN3VmWp-523" value="" style="shape=partialRectangle;connectable=0;fillColor=none;top=0;left=0;bottom=0;right=0;editable=1;overflow=hidden;" vertex="1" parent="C3HohyDAmdTFKAN3VmWp-522">
          <mxGeometry width="30" height="30" as="geometry" />
        </mxCell>
        <mxCell id="C3HohyDAmdTFKAN3VmWp-524" value="emailEmpresa string" style="shape=partialRectangle;connectable=0;fillColor=none;top=0;left=0;bottom=0;right=0;align=left;spacingLeft=6;overflow=hidden;" vertex="1" parent="C3HohyDAmdTFKAN3VmWp-522">
          <mxGeometry x="30" width="200" height="30" as="geometry" />
        </mxCell>
        <mxCell id="C3HohyDAmdTFKAN3VmWp-525" value="" style="shape=partialRectangle;collapsible=0;dropTarget=0;pointerEvents=0;fillColor=none;top=0;left=0;bottom=0;right=0;points=[[0,0.5],[1,0.5]];portConstraint=eastwest;" vertex="1" parent="C3HohyDAmdTFKAN3VmWp-515">
          <mxGeometry y="90" width="230" height="30" as="geometry" />
        </mxCell>
        <mxCell id="C3HohyDAmdTFKAN3VmWp-526" value="" style="shape=partialRectangle;connectable=0;fillColor=none;top=0;left=0;bottom=0;right=0;editable=1;overflow=hidden;" vertex="1" parent="C3HohyDAmdTFKAN3VmWp-525">
          <mxGeometry width="30" height="30" as="geometry" />
        </mxCell>
        <mxCell id="C3HohyDAmdTFKAN3VmWp-527" value="token_mpago string" style="shape=partialRectangle;connectable=0;fillColor=none;top=0;left=0;bottom=0;right=0;align=left;spacingLeft=6;overflow=hidden;" vertex="1" parent="C3HohyDAmdTFKAN3VmWp-525">
          <mxGeometry x="30" width="200" height="30" as="geometry" />
        </mxCell>
      </root>
    </mxGraphModel>
  </diagram>
</mxfile>
